<mxfile host="app.diagrams.net" modified="2024-04-30T19:15:58.375Z" agent="Mozilla/5.0 (Windows NT 10.0; Win64; x64) AppleWebKit/537.36 (KHTML, like Gecko) Chrome/123.0.0.0 Safari/537.36 OPR/109.0.0.0" etag="SFmdnJKZzrLM2nZAttLM" version="24.3.1" type="github">
  <diagram name="PÃ¡gina-1" id="P3VjhcWSL6VIFoJgS36J">
    <mxGraphModel dx="1660" dy="485" grid="1" gridSize="10" guides="1" tooltips="1" connect="1" arrows="1" fold="1" page="1" pageScale="1" pageWidth="827" pageHeight="1169" math="0" shadow="0">
      <root>
        <mxCell id="0" />
        <mxCell id="1" parent="0" />
        <mxCell id="eIilNgB78uuXr6DEdDGg-1" value="" style="shape=image;verticalLabelPosition=bottom;labelBackgroundColor=default;verticalAlign=top;aspect=fixed;imageAspect=0;image=data:image/png,iVBORw0KGgoAAAANSUhEUgAAAdoAAAEmCAYAAADFtFHNAAAgAElEQVR4AeydCXRURfb/eyC9JJikAyQIYV9iRIFI2AZFQcYViATREYVBwMGwBRURkBgIiKIQRJwBHQfZRFEUhRkHDggJm2E7YQskHHZ+ASSHEA4h/3SfTp/P3+r063Q63a8D6ZCFSp9O93v13q1b37q3vlW3ql9pkH8SAYmAREAiIBGQCFQaAhohWaPRyLfEQNqAtAFpA9IGpA1Uhg04iBaNfPkCAVFJ8lV5CEh8Kw/b2iRZ2kltqs1aUBZlRFsLilItCE46eOVaksS3cvGtLdKlndSWmqwl5ZBE69uKlA7uWzxdpUl8XRGRx+4QkHbiDhV5rsoQkETrW+ilg/sWT1dpEl9XROSxOwSknbhDRZ6rMgRuhWjzNGgyNGiuqgRp/6FB00iDJlnlmhsaNEM1aN7SoCmyv5dr0HyrQWNVua/KQLoFncrr4GYNmiwNmjO3IFuU/7wGTXsNmj9r0JhU7v1Ig+aFP3A+dZfiWxNsRepYeQhUxA9Fm+StPUrVoInVoPlGxQfVSufaBqpdK9NqAQLlIVpBCE9r0Gjtq5P9NGie1aC57GJkolGvr0HzhAZNoUuaM1QXNWh0GjSt7GRx2C5bnPtd5T5nGdX1uzcHF7i8rUFjtGP5Jw2adho0m8tRbtEJ+av93t9UrhfXPa5BU1eDZtsfDYIrvqIhWWJvTGpax0YNX9G5ELg20aD5zgmfsxo04Ro0Lzudq672I/XyDQJqdiJyUPNDV39xp9Fndv8df5s25doGustDnqtFCHgj2mwNmuZ2o2qmQTNcg+ZJOzGucDGy/9lJJMflvCtcrkZWoEEz/Q+Zc+yjL9fra9KxmoMLUhONvSBXf3uP+CV75+Q5L5gJDEREYaIGzSYv17oSrSu+Qo5egybMS4eoOuKuhu/f7XYqrmlhx0uU4ZjdXkXno6Z1LKpjHdQEndTsxJsfuvqLu/JKonWHijznEQFvRDvB3ng94BIyFqGTo04N/ro/wqB/06Dpr0EzVoNmv1OayPwHeyhTELUYZTmPaMUIS4Sc/+3UEG61h5dFeOY9DZpZfxD+V04yRQhbkM4AO3l97XSvx8I63V9Z16g5eIoGjYgGiLJvcdLlkgbNj390Nix/kO4iDZqNGjQCz4EaNAIH8RLh+hkaNIKQBVmL651fgkxGO4Wz+jiNaJ3xvfZHfc60E889dpnfO0mqrrgqZVXDVxCtGMVH2jszwmbEyxPRqtnsL3abFJ3GKXbcF9ttTNSd6CANc2Pnwu5ft/vBOHveiu7y884hoGYn3vzQ2V+Ujlm+vQ2KsQ8KPra3i8qIVqT/U4NmiL1NmvSHfZx28itRcrU2UKR78/E7h57MyecIqBGtmANsbW+0RKjR02vyH0ZY54952UB7GFR8FyM2ZeS1zN4ACuMXb5EmRnVK6Pi6fYQVah9hiZGxCFM/+Mec8GD7d3GfmJsUr1/teYlGNUKDJsAuL96jhp409/15NQdXOi0iIqA4sLMGCg5tNGgMdqzmadAIcuxgL6NIC7Lj/Ym9vOc0aO61Xy/yV/BXQseKXIFvuhOe4lrxFtMC4lWdcVVwUsNXEK0o+4f2zowor4ieuCNabzYrOozCBoXNKTgJ2aKhVaZQxPnGTh1QEf6vZ687YZeiUyWmUkTnRb7uLAJqdlJeP1TaI0G8osMv2iwhV3yKNkd8V4hWtFPivGgvm9q/t/0jwnfTXvPe2kBvPn5n0ZO5+RwBNaIVlS9CjKLB2OGhqRCNmLhGLIBSFvZ8YDc0EaoTi36i7A1gor2XpxitJ6IVIwXRmB2xE9IzdnK5YA8td7fLW2rXScypiAZOGL8gnap8qTm4KIdIf8ODhgohCocVGIi5RTGimmvHU3FqMWcuRqOCdAW+Alcht5cd34V2/NwRrZibEtMBos5EQyLmxEWHSjQm1RlXpU7V8FWI9if7XLbAUWAtiE7YkxI69mazohMkiFbkFW2P3Eyz14HwBVEfQqawX0G+6+349bT7ihKFEAsChQ7VoQOo4He3fKrZSXn9UCHag3b7CbZH43b+sb6hpQvRrvkj6iGuEy/hTyICKGwlzR6p8tYGevPxu6Xeam051YhWhDIUot3tgRz+ZW9MRI9OeZ2wG6aYAxQjCjGCFcQgiFu8REPvHDpWCEYx7BF2I91jb8Aetsu4YiceMdoTRi/CNeIlSEKswlUaveKzVfNfzcGfsjunCCu5eyk4iLI5r+wW4XHRYL9iJ1URSm9orxuBqViYJtLFSknxEkThHDpW5Cr4upujFYRenXFV8FLDVyHan+2dNGF3YvSvREgUovVms6IzIohW2JMgbfHaa7fJh+wNpzj3oh33lXbbFh090eFLsNfTa3YZon7k684ioGYn5fVDxV/ElJbwLxHNUF5iikfkoXR+xXkxbSDOJ9kjbaKjK6JEueVoA735uJKv/KyhCKgRrWhwhLEJI3Nd+KQUd77d4MTcq/ISoyRBpGIFaKZTGE/IEy/XxVCuRCAaSmGkIm8RPhYN3ig7gYhRsxidKE4g5Ali+Ytdz7UOLRRt7uynmoOLOWyRLuZe3b1ccRDXiLL1tpft/j9Io5vTW/TMxcKNx+wYCdyUewSpeBrRuiPa6o6rgpcavs5EK64XNiOuF/PaziNabzYrMFWIVsFUCbl3diJaMVcu5AuiFT+7EjYv3l2d6khECcScuHzdWQTU7ORW/VBM0Qh54j7l5bwYSvioWJci2knRAe6iQRNi9z9BtCLKJuzCuc1ybgP/nxcfV9pNJW/5WQMRUCNaYUCipyWM7BGXFapiNClGXWIRkjAwQQbievESYWYRNhEkKUZcYu5WNHQiZCdeymIEd6Fj0ciJ0LIY1S2wLzwQC38U2YKMxChFjLSVMLEI1YifyIg8XBdhFed45/6rObgIdQusBB6H7FgomomG2h3RinRl/kcZsSr3KJ+D7HLft8sUcsSCIG9EK+YPFSeu7rgqZVXD15VoTzrZnsBdGdF6s1mxKO1WiVb8LlLYrLBN52iEorf8vLMIqNnJrfqhYi+iAyWiZ+IlFmKKPMSIVpmKEb/OEH4kXmLdgzKiFbbhrQ305uPFUuX/GouAGtGKQm23hxRFQyXmGcRvQEWDJhaBfPHHSlexYlY02ILkRMhErOQUoy5xvWj4BUGKxT/CKMVoQKzEVH5D6oloRYMoRrFifkzc+/wf869ilZ8gYSFPjAiFfNEYbrD3JsX1YvQgGsmqfKk5uOiciEVN4hrR8xWrU0UYWZRTOKYnohULKUT5xJysiCz81z5PKOZmxUushhV4iF60mA/saD/2RLSCXEX+QqaIRAhsqzuuSp2q4etKtOIegYfARtynEK03mxX33SrRCvzEyFnkJexTzNuKVaaiQRb1JV93FgE1O7lVPxSdYEGUwl/E79hFx1Z8F3kIohX2pExTiM6wiGCIaRiFaMvTBnrz8TuLnszN5wh4I1qRoSBP8btEpcESn+IBAGKiX7xEgyLmY4XhibcgXUEiYqQpXmKRgFiJJ9KEgYoQjCBFMeoSi3mE4QvyFb/TFfeIVaPiOpEu5sTEKEHkKcIz4iVGsuJ+Z31Eb1MsEqrqlyij2kuEaJWOhIKXcFLxG2JXHBQ5ohctCEOEn5R7BD5x9pxEB6SfHQ+BiYgkiA6NqAcxt+5Orngql4KfuFe8qjOuChZq+IqFT6LMzg//EA9VESF3UVaxwEx5ebNZ8VQtIUtZOS8WP4nGU0R2lFGNmIMVjany8yiBn1groOAqdBVztqIzKF93FgE1OxGa3KofigWGiv8J0p1tJ1exel0QqegwC1sQ+TawR6GE/SiLSL21gd58/M6iJ3PzOQLlIVqRqTAmsbpXzDmIT3Hs/BKjJEG84ve17p7uJMhAGJ2Ys1V7iQVPIgQnfh6hhDVFYyeMWKzqdH6JULRY4Xm81FnnK+78d28Ormgkesni98SCCEVoqTwvgY3AV0QZXJ/KJe4X4WjxxKjyjupFPQodlHCXokN1xFXRrbz4KterfXqzWbV71dKEjQs/EQuohN3L151HoLx2cit+KELEwv88PZBHkLdId/UnpfTlaQO9+bgiS37WMATKS7R3qlhikYAYBYgRrljBJxY3idV+YpQgfmJR3V/ldfDqXo7qqp/Et7rWTPXSS9pJ9aqPu16b6ka0okLEb9LEvKX4SZAI1933RyhZPOVHhJmr+0s6eOXWkMS3cvGtLdKlndSWmqwl5aiORFuToZUOXrm1J/GtXHxri3RpJ7WlJmtJOSTR+rYipYP7Fk9XaRJfV0TksTsEpJ24Q0WeqzIEFKIVhinfEgNpA9IGpA1IG5A24FsbwE604lP+VRwB0VmRf5WHgMS38rCtTZKlndSm2qz5ZbGxgjRK31WkxNJ3WLqTJPF1h4o854qAtBNXRORxVSIgidbH6EsH9zGgLuIkvi6AyEO3CEg7cQuLPFlFCEii9THw0sF9DKiLOImvCyDy0C0C0k7cwiJPVhEC5SRaE9fOZ3L0+HnyLFWkaQ3JtjwObs67QFbGcc57AtN8jfOZGWRlX8ct3BVNryFYulOzPPi6u6/qzxWRdy6Tc3lFVa/KXaBBzbWTu6By7sIieiFaK79vTuTZiGD8tHp0fn9C3/hRpm36HetdCFZ5iqzm4NbLG3nv2fsw6nUY9H78SdeER6f+j8sOMC2c/DaObmE66mp1+NUxEN5nOpt+Vy6oaHp5SlC9r1HDV9HceuUbhrZuQFjnd0gtVM6W99NKzm8r+XRNOjfKe0t5rivcwIhGfjQe9Qu3rFJ55MtrSiFQHjvBeoVvhramQVhn3rl1QymVnzyQCKgh4IVozaTNH807y34ju9CK5dJm3owyoO3wLvvdDrXUsro70tQc3Jw2n9HvLGfPJROYL/DfcR3Q+7UhfrvZBk5R1gJ6B9Wnd9JOrhRZyT/2JYObaWk6cgPXgYqm14YaUMO3uHxWLvzzCYyt7qOtfzgjNuTfYrHN7H77Pgzd3ue4Twef+ZxIWU/qyZu3qI+8/HYQ8G4nYL3wT54wtuK+tv6Ej9jArVrK7egl77k7EfBCtK6gWNg/vQPakJf5UXbLXcGxHZfHwZUbLQffo5NWz1Nf5AAWjsyMRt9mAikmxxUcTIxC1+hVNhRUNF2RWbM/veJbdIr5vYLpPnsb/3gykNCXvuOaU5Gtub+xYuFPHL92lDWJI4mNeYHX5/7CWVtfp4BD384h7rEwtM2e4s2k2XywbDe59oBCfuZ65sUPJXbAAAaPnMrn2y86QvvqcgFrLmkrklm555ojGqQmz0ll+fU2EPBqJxRxan4vgrvPZts/niQw9CW+czIUpT6PZW9j3muDGDR2mU0La+4h1s6fxIjBMfSPHcrE5I2cUfzVmstvKxby07Fsts17jUGDxrIsw4LqPUJq0SW2//MthsY+x0vxi0jNzuI/n33FzivC8Kxc2bmU5NX7nSIs19m/Opmvdol2Q5hWJehkkyz/+QqBWyNaSxYL+gRxT+8FnPJpb99Xxal6Od4dvETHwo1/p6n2Xkb+V/RabrAq9h78ByyzjV6Vqwp+eJkQXU8+OpVXwfTaUWHe8C3KmE3XwIf5+ISFy0sHYAyJZYWtwSpG1Na5MdxHjx4RdB86hRmTBnJfPX8eem+frQ5S5o3g2QeN+IVGM/CVYYyY+R9baN+U/jG9GwTQsu9oEmbPIH5ge4IN7Xjt5ys24lSXK/pRB3mvkz+dZxy2kbM3eUr9y8/bQ8CbnVCUweyugTz88Qksl5cywBhC7IriuhQ52urTvz09ukfQ6+8JTE9YDpjYMj6Kjv3imPHJYhYlDSc6xJ+ohH3FHS57Hbfv0Z2IXn8nYXoCyw/dVL+Hm+yY0ol6QQ8w6O0ZTBnWjWZtImge0J539ojen5m0yZH49/iQLMWFizL5oLs/97+zp5J0uj3M5V2eEfBOtNbLbEqexMRxo4iNbkrTHnF8nal04TwLvltTvDq4Aoz1Mt+8eC/atuPZJqKJ1rMkP6qnwdB1pebwTFvH0lL3INP2nKxY+r7aEetXx9fCgekdCez9CWdEo3R1FYPqB/H0Fxcdo0hbA6prQN/kwxTY6uImG//eDH10kr1m3IWOr/L18/Wp98hHHFdgtGbz7/4hGB7+iBNF9oZZTW4povUuTzET+Xl7CKjbCVgOTKdjYG8+KTYUVg2qT9DTX3DRHr2w2YlWS8TYTaUiIliV9RJCLxMpE1pjeDSZs+K0rY61aCPGsslpdKx6T+5qng+pR695Jyjm0UKOLnyShtr7y0m0ou3wsU63B7m8SwWB8hPthNG88tSDNKzXmIff+InzSu9KRfjdmOTNwYsxKeLc1y/S1NCW1zbkFJNA0WnmPaIndPj6UkRrTo2njf5BpqWdqFj63UC05l28FRHEX/5x3k6seXw/JJR6fRYWE69jpNKZGYcVxizizPxe+Ld9w26ubojW9Ctjmuvp9v5xe2MoLrVy8bPH0Qe/yHcFyghIRa4z0ZZD3t3oO74ss7ofmtn1VgRBf/kH5+0clff9EELr9WGhjXjt9WmIIvGgYicl2t04mcKaJfOZk5TI2D5N0HeZzTHRHtrq2EBU4kHHlIJyl6d7zLveIsLgbDdQlPkB3f1vgWhFLMaHOik6y0/fIeCdaEvlVcTZpc8R5ncvf/tZLh0oBY39QN3BxUVWrv46mejghvT5aD8lS2Ou8sXTegIGrnSai4HC9cMJ0/ci+WxOBdOde73uNK8Z59TwLdgyhhZ+/jS5P5ro6OJ3x+ZB1NH/mbmZxT3D4pCgc8Nm5eyCR/FvE28HwA3RFq5jaH09fRZlO0bG4uL85TEY/Aey8qY7onWR60y05ZBXM2qj+mqpZicUbGFMCz/8m9zvsJPojs0JqqPnz3MzbZ2psnYiymomY/FzNA8Kp1vsSMbGxzOsZ5gL0ZZMDxSjo36PadNomgr7FGER+9+tEa26fNcpi/LopOghP32HwC0SLRSdnsfDWh19Ps32nRa1SJKqg4ueZ9ocHmsYQvd3UxyLbIqLb2LbuJboIieTVrwIWaySIGNWF/TN49hiqmh67QDZM775bBgRTr0ek/h2wwY2KO91H9A/TO+YGy3bgLoQImZ+E6uOlVGKgM28m7fv09HuzZ04qgYL6Qkd0bd7k53mWyTacsirHbVVdaXwbCeQv2EE4fV6MOlbJzvZsI4P+oeh7zwDEewoayciUpzChNZ6Oiceso9YLRx8rxP+iq04d6aUonu5x5KeQEd9ayaUrIAsztugjGgt7H+3A4aoRA4pg2vzfqZ3MBTP0XqR75Zovd2j6C4/fYaAOtEWZbI8IYnvDl0tNizzRTZNiqaergPv7lVq3We61ApBag5uPr6E/k0MtHpxCbszs8jKEu8TnLxU/IvNm5vjaKkNZ9DSE7bwsenM1wxpbiDyrR2244qm1waAPeJ77TteCr3HKWyslDaf9a82Rtt+CmJtSdkG1JVoLWTMikYfPpyf8qxYzGasFJI6sR3aRs+w8GBxXd04spiB4f50nL7XRr5e5ZZqhL3LU7SXn7eHgEc74RrfvRTKPU5hYyWH/PWv0ljbnil7zG7sRBDtNsa30tNh6l6bPxZd3sSk6EB0qkTr5Z7CrYxrpaXpX1fZVr6bz/+HSd2M1PFTiBZylsUQZIgmYW8+mM+xfmIXjH5aO9F6kV/K7uwl9VYOBRD56TME1InWepG1cZ2or9USGNqYsCAtdYPu4/mFe0uFN32mTS0Q5NnBrZxb2BvDn8puR6jtPLO45NYrbJrSk1CtlqDQMIL1/rToN4805ckJFU2vxfjm//AyocZn+SK7bIj85sbRNDc8yLR9FixHZ9E1sDtzbJNqAhAr2f/oS2DkZAc6lkMf0ctYF11wA+r/eRYZFrBeTSXpiaYY/AKo36gBAdogIl9awiF77N+rXMtRZnUNpPucY7bQpDd5DmXkl9tCwKMf5v/Ay6FGnv2i9DSALZObGxnd3MCD0/a5sRNxhZkjnz5DuCGYFp2iiIjoxbi4voT2nGtbEIdLHRcr7uUeYX/r4ugQVBeDMRSjsTX9xr/Eg44RrQiD7SSxRwh1tUE0MBppOyiZmQMbEpVwoJJ0ui3I5U0qCKgTrf1G05VM9qZuZeuuw1zIL9uQqci/65I8OvgtIFGQfZhdKansycpxClWWCKhoeomkmvfNF/iWp9Smy0fZsTWVg9nOPxg3kZO5h5St2zlw9rrTwqjySHR3ja/lucvj7jxXmXZy80I621P2cPp6+dtCb/dYcjL5LWUnRy4VYim1GMpef5ZcTqSlsuPwpVKLJZXa9SZfuc7583bucb5ffi8/AuUi2vKLk1dWpoNLdLFtxixxkAh4Q6Am+2HpxVDeSirTawICkmh9XEs12cF9DEWliJP4VgqstU5oTbaTolPJ9DZGk5gu18HUFsOUROvjmqzJDu5jKCpFnMS3UmCtdUKlndS6Kq3RBZJE6+Pqkw7uY0BdxEl8XQCRh24RkHbiFhZ5sooQcBCtMEz5lhhIG5A2IG1A2oC0AR/bgCB4Aar88w0CEkvf4OhJisTXEzLyvDMC0k6c0ZDfqxoBx4i2qhWpLflLB6/cmpT4Vi6+tUW6tJPaUpO1oxySaH1cj9LBfQyoiziJrwsg8tAtAtJO3MIiT1YRApJofQy8dHAfA+oiTuLrAog8dIuAtBO3sMiTVYSAJFofA18eBzddO0/m0eOcz/PwOznzNc5nZpCVfb3Mdls2dSua7uMy30lx5cH3TurjKa+ivHNknsvzwdOjPOUgz6shUB47seSd5/iRDM7kOu+vfZPDKyYzbMhrzP75JAWWE6x4axYb89Ryq6o0KxfWTmbIlB9x8+TRqlJK5usGgfITrTWX/8Z35t4GTej78VH3BOAmg7vtlJqDW3/fTOKzEQT7adHr/PiTvjGPTtvE744nuVk4+W0c3cJ01NXq8KtjILzPdDY5Lqhoes2vDTV8Tf8bSztjMEFBwQSHhNL0vod5MXEDZz30Z24ZDWsOv638lDXpysOnPUkoZMOIRvg1HsUvzk9w9HS5PO9zBNTsBMspvo3rRpjOD71BS526QUQMW8W5IrBe+ZJ+Tfvw1rxJPNG8IW2j76dxRDzbbrMeTZvGExFSbJPGkEa06PQEo5K3crFkV7wKlN2+e5B9x6EKCJK3VjIC5Sba/NQ3aR/angea6my7RpRsF1bJGtYw8WoObk6bz+h3lvFbdiFWyyU2vxmFQduBd/cXM0FR1gJ6B9Wnd9JOrhRZyT/2JYObaWk6cgPXxaZ5FUyvYVC6VVcN34KvYwkw9OH97Wmk7d7K2rmDaKu/hz6fnPTNyNK2vZ3BZQN4t2qSfyKF9aknnfYbdn+dPFs5CHi2Eyu/Lx9ISL1o3v71EmJvphuntvLll5u5KDq8hafYsTXD5m/W3GP8un4j6Zdvv6dms0ndYySlprE79T98ldCPVrpAen54xAeDFUm0lWM9vpdaPqI1HWBG11AemfMDidHF+yBKonVfGZ4dvOz1lv3T6aAN4eUfRXfZwpGZ0ejbTKBka0oLBxOj0DV6lQ0FFU0vm39NPKOGr61RC4jl6wJ7yYpOM+9hHUEvrEE5BTfIWDuHMS89x4DY4Uxesp1LjnbUSu6htcyfNILBMf2JHTqR5I1nsAUWCw7x7Zw4HgvT0uypN0ma/QHLdudizf2NFQt/4lj2Nua9NohBY5fZdgTKTVtB8so9XLNa+T31X8yZPYtZs4rfs+d+Q7p915+aWAc1QWfPdiL2G45E1/YNdrhrxKy5HFo7n0kjBhPTP5ahE5PZeMY5tAz5meuZFz+U2AEDGDxyKp9vv+iRNIs7fzEsz1dQy2VlbDDaLrPIECPo3EOsnT+JEYNj6B87lInJG3FkZ73CzqXJrN7vFEG5vp/VyV+xK0f0CtwQbX4m6+fFMzR2AAMGj2Tq59u56LBvRQf5eacRKAfRWshc0Iewh94lLf8osyTRqtaRZwd3vc1C1oI+BN3TmwWnRBzpBqti78F/wDJbb1q5uuCHlwnR9eSjU3kVTPdJrEpRq8o+1fAtQ7QFKUxopy/e9symcSEHPuxFg3t7MW7BclYunka/VsG0n7ilGHPTFsZHdaRf3Aw+WbyIpOHRhPhHkbDPAjdSmDfiWR40+hEaPZBXho1g5n8u2/ctbU+P7hH0+nsC0xOWuzSARZxeNYHYmAEMGDCAp6Ia4ef/F/4pJ9Uq1YY824mVnNWDaejXiL6zUpw6WcXqmLaMJ6pjP+JmfMLiRUkMjw7BPyoBYQLiz5T+Mb0bBNCy72gSZs8gfmB7gg3teO3nKzhmgIovtf0vS7QF/DSsIbroJI5aTGwZH0XHfnHM+GQxi5KGEx3iT1TCvmLiNqcxOdKfHh9mOSIypTcccCFaUzof925AQMu+jE6YzYz4gbQPNtDutZ+54k45Jz3l18pFwCvRWs9/xXONIxi35TpYMiTReqkPzw4ubrRyeVMykyaOY1RsNE2b9iDu68ziEZP1LMmP6mkwdF2pbbBMW8fSUvcg0/acrFi60lJ40b+6J6vha2vUtBH0Gz+RiRNG82L3cEJ7vMtWW+8fyP2GFxo2ZNCqkkYx7/shhBljWXWtuORW5wbJlMKE1gYeTT5b3Ii6CR3bNnzXaokYuwm7CBeidUK0cB+J0UG0G7OJarm2xknVmv5VzU4oOsv3ozsRXKcuxsgBTF62D8VEhI+WNoEJtDY8SvJZcfYqXz9fn3qPfMRxZZRozebf/UMwPPxR8Z60LsCVJlor1/bOpW8DHe2npBVvgVna4EiZ0BrDo8nYsrtFor369fPUr/cIH5UoR/a/+xNieJiPTtSOjrYLvDXmUJ1orVf4cVgLmg/9obhHJInWa8WqOriDaCcw+pWneLBhPRo//AY/nS8CEeZ8RE/o8PWliNacGk8b/YNMSztRsfS7jWjjxzHq+YdpcY+RqLHruGAF07bxtNI248n4RBIT7e8xfWise4jEQ0rLeYOTKWtYMn8OSYlj6aPv2hcAACAASURBVNNET5fZxZu144loDVEkHlTuFybiMtKwWY2J9FndCW41ig1XnZtyryYlL7gNBNT9UAg0k73jc954JoLAOnpaDvoXx5RQ8o2TpKxZwvw5SSSO7UMTfRdmHysC06+Maa53maO3cvGzx9EHv8h3JfMTDo1tRFvnHhq3aUub5qHU0wZx3+BF7HeEkuHGyRTWLJnPnKRExvZpgr7LbER23BLRmvh1THP03d7nuBOnWi9+xuP6YF50p5xDS/mlshFQJVrLvnfp4N+aQbO/4F//+hf/+mI2g1ppCe/3Hv9au9epF1jZatYc+d4dvKQsRWeX8lyYH/f+7Wdbb/mLp/UEDFyJ04wMheuHE6bvRfLZHCqWXjsadzV8bY2a8xyt6Nh8PZhG2kje/s1M4YZXCdOG03tUPBMnTnS835j6ObvFcNScweLnmhMU3o3YkWOJjx9Gz7ByEK1/Z2YcVida85EPedjYjKE//F5qxFRiDfKbLxFQs5PS+RRwbHF/7vUL428/3cScsZjnmgcR3i2WkWPjiR/WkzCFaAvXMbS+nj6LskvVYf7yGAz+A1npZt69OMrSg7fW/MT6X7ax78x1RxhYkH3G4udoHhROt9iRjI2PZ1jPsNsk2kLWDa2Pvs+i0j/1yV9OjMGfge6UKw2EPKpEBFSJ1rz7fZ7t0Z1u3brZ351ofk9dAsI70GPgPPYrPcBKVLCmiS6/g4tlxGKxjhZdn0/F7A/bxrVEFzmZNAeuRWTM6oK+eRxbTBVNr2lIutdXDd+yRAuW9PfopA1l+PpCLHun8oA+gkm7HQCXysSUMoHW+s4lo1vLQd7r5O80ov2Nt+8zlByLsevB9+jkjWgtGcx/zEj4i6uLV7aWylUeVAYCanZSJr+8f/OsXs+Tn/+fLXSr75yIEuAorl/7iNYW0dDR7s2dxWFfmyAL6Qkd0bd7k51uzMpmkwbnxVBOudumJvR0TjxkX0xlj4QoI1rLft7tYCDKkQ5msYDScD/v7BGZOUdOzOx++z50LnpY0hPoqG/Hm+6Uc1JFfq1cBFSJtkzWMnRcBhLXE54dvIjM5QkkfXeIq7bBj5mLmyYRXU9Hh3f32sTc3BxHS204g5aesIWPTWe+ZkhzA5Fv7bAdVzTdVdeaeOwZXyhu1J5iwZEssrIyObr7e2Y8FY62yct8LybhTLuYFKmn6eClZCphPksux9NPcF0JLes7MHWvWAVexGVRP4G6EmK12b+e8OE/kWe1YDZby0G0RZz+55OEGB9jVkomWVlZZJ04S07phaw1sSqqtc4e7cR6ibWJb7Fk+4XiKRprLns+eJwG/l2Zdfgm28a3Qt9hKsUmcJlNk6IJ1NmJlkJSJ7ZD2+gZFh4sjjvdOLKYgeH+dJy+14l8S6BRJ9ptjG+lp8PUvTZdii5vYlJ0IDqFaMlhWUwQhugE9uaD+dx6JnYx4qd1R7RQmDqRdtpGPLPwYHFU7MYRFg8Mx7/jdPa66QSUaCm/VTYCt0a0RZnM/XMgUe8d8LicvbIVru7yPTo4Vi6ujaNTfS3awFAahwWhrRvEfc8vZK8SK7ZeYdOUnoRqtQSFhhGs96dFv3mk+Sq9uoNXDv084wuFPw8nrO6fird7/FMdtPc05oEnx/Hl/jxHqC9v90f0bxWAztiMiMi2NAn2J/SJhcXzWuYjfPpMOIbgFnSKiiCi1zji+obSc+4Je7jPwqGPemGsqyO4QX3+PCsDy9FZdA3szhzbpJpSAAtHZ3UlsPscjhUV8vPfQqnjvA1lnQYMXXebT0BQspCfqgh4tpMbbJ/Zh3B/P/zr30tYsB6t8QFe/vyQ7Sdg5iOf8ky4geAWnYiKiKDXuDj6hvZkrn0xkfVqKklPNMXgF0D9Rg0I0AYR+dISDrkJGwsFC75/CWPwYL5xm27myKfPEG4IpkWnKCIiejEuri+hPec6Flbd2JlIj5C6aIMaYDS2ZVDyTAY2jCLhgOitO9uZWGt5ldSkJ2hq8COgfiMaBGgJinyJJZ6UU0VQJvoSgVsjWl/mXEtleXZwe4FNV8jcm8rWrbs4fCHfQQDOcBRkH2ZXSip7snLc95IrmO6cV0377hXf8hTIco1T+1L5detODpy66oLxTS6kbydlz2nbKLesOBOXj+5ga+pBsiVXloWnmpzxZieWvDOk79jK1p0HOX/DZf3CzQukb09hz+nrbv1TTPPkZO4hZet2Dpx1nnO9vcLfvJDO9pQ9nBZhFTd/ltwTpKXu4PCl8hmcKSeTPSlb2X7gLNedFka5ES1P3SEEJNH6GGhvDu7j7O46cRLfu67Kb6vA0k5uCzZ5UyUhIInWx8BKB/cxoC7iJL4ugMhDtwhIO3ELizxZRQhIovUx8NLBfQyoiziJrwsg8tAtAtJO3MIiT1YRApJofQy8dHAfA+oiTuLrAog8dIuAtBO3sMiTVYSAg2iFYcq3xEDagLQBaQPSBqQN+NgGBMELUOWfbxCQWPoGR09SJL6ekJHnnRGQduKMhvxe1Qg4RrRVrUhtyV86eOXWpMS3cvGtLdKlndSWmqwd5ZBE6+N6lA7uY0BdxEl8XQCRh24RkHbiFhZ5sooQkETrY+Clg/sYUBdxEl8XQOShWwSknbiFRZ6sIgRugWiLuHExi6NHMrlw3XmnkirSvJpm6xMHN1/jfGYGWdnX3T/qsqLp1RS78qhVXnxN186RmXGcc9ecHvJqvcDayUOY8mPp3VfKk2/5rrHy+/rpDHnzm+LLi/I4l3mOPPl0nvLB58OrymsnPszSQ52byVo5ml4R4TRu3pUpW+VDrn2OeQ0QWC6ivXn437zWvTH+/kYaNQrBPyCSSdudGrAaUNA7paKqg19fwyvhRoKDggiyv4MbPMZcx3NyLZz8No5uYTrqanX41TEQ3mc6m35XHs1W0fQ7hULl5aOKr9gK4PwvJMZEYtTWRWvQo9UauT9mBpsuWcVWO7bdeDrPOOy+A1NhtYvI/KA7/ve/Y5NUuGEEjfwaM+qX8j06r8LZSwEOBFTtxPQ/xrYTfhhMsDGE0KaRPPzSDNafrnibVqbOr69lSMMAurz9H/anbSHtrOx1OSrpLvrilWitV9czslUg7Ueu5Kj9WZyFl09xzsNzOe8i7NwWVdXBcz7nqYBIXv92N2lpabb3nn1Z5NgDBEVZC+gdVJ/eSTu5UmQl/9iXDG6mpenIDVwXJFLBdLcK17CTqvjeSOHtDgEEdY5j5cGrWLBy8+w2/jGqL2N/LLjjREv+CVLWp3LS7QPlaxjwNUxdVTsp+JrYAB2PJaWS9ttONq/5kMERBgwPJbK/osE6lzq3HJlJtOEBpsrtc2qYBflWXS9EW8TpT3pzT6s4NsvGolzIqzq4INp6rpuEK2ItHJkZjb7NBFIc0SULBxOj0DV6lQ0FFU1X8qnZn57xLeLUgseoV+8RPs70MGpwHdFaczm0dj6TRgwmpn8sQycms/GMAr6VKzuXkrx6f/GWYzbYrrN/dTJf7cpxgGi5mMo/3nyFgc/9lfGLUtj1fsmI1pqbxorkley5VhyRsOYeYu38SYwYHEP/2KFMTN6IIzuHRPnFFwh4thOxpY4gWgMxy/MdWeX862kMukdZcE6JHsGNjLXMGfMSzw2IZfjkJWy/5MTC1qvsXZbAqMExxPz1dWauTifXCs51bjryPR+Mf5wm2ib0nZDE+5/+whmbad4gY+0cxrz0HANihzN5yXacRTuUkl9qDQJeiPYay58LJOxvP3Oz4HdOHNzHgczLtu2kag0CPi6IqoM7iNaMtcSf7RrcYFXsPfgPWGYbvSpqFfzwMiG6nnx0Kq+C6R7IR8mohnx6xNeazWePG9A//hnZZbC1F86FaE1bxhPVsR9xMz5h8aIkhkeH4B+VwD5be2ombXIk/j0+JEuBriiTD7r7c/87e4oF3tzBOx0DCHpgEG/PmMKwbs24NywYrT10XHpTeBNbxkfRsV8cMz5ZzKKk4USH+BOVsK+Swtg1pEIrSU2PdiLyK0O0FjJmdUFnHMzqvGKFCg98SK8G99Jr3AKWr1zMtH6tCG4/kS0itEQ+O6d1JtDYgRfenkXS5GE83LIrCemWUvsTF+z6hFEDoqjvV5+oAa/wt4lfcdRSyIEPe9Hg3l6MW7CclYun0a9VMO0nbinl95UEixRbRQioE21RBrO66DC2eZBWxiAaNQsnRK8l5KHX+f6c0vpUkebVNFtVB8/9kmf0dahbtw5/qqMluGk0A99dh21qyHqW5Ef1NBi6rnhDanv5TFvH0lL3INP2nKxYejF7VFPUyq+WR3zNqcS30RI+ehPKmLSMVBeiBWupbdBMKRNobXiU5LOCqb0Tbe7q5wmp14t59r1KKTzKwicbeiBasV+ocw/ARMqE1hgeTcaWXRll5YmKIODRToRQG9Fquf/56SQmTufNvz1Ki+Bm9Ft40O57uXzzQkMaDlrFFaXK8r5nSJiR2FXXsP7+FTFGI08tOeewH2t+HmKNaOnOFVjSE+ho6MR7B+2j4dxveKFhQwatuuK4N+/7IYQZY1l1rSIllvdWZwTUidayn3cf1NLwyQ/Zfal4oYD53GqGNNPS7PXNpQihOhfyTuqm6uAUcvVCNjl518nNPsrGBS8SYQig6+zDUHSaeY/oCR2+vhSu5tR42ugfZFraiYql13aiNW0hrrmW5mO23ALRAjdOkrJmCfPnJJE4tg9N9F2YbVuc5o1ozex6KwJD5xkcdkQUSy+Gcm10hR3eOJnCmiXzmZOUyNg+TdB3mY1jLdydNNRanpeqH9qIti7hXWN47qmuNAvQ0XrotzjGDqZtjG+lpdmT8SQmJtrfY+jTWMdDiYcwbX6dZoaH+fhU2cGGa527Eq1p23haaZvxZLwiN5HEMX1orHuIxEMOQ6rltXP3FU+daIuOMbur3kaqJaOEQn58OQS97Im7tRZVBy9zRw7/7heArtd84CpfPK0nYOBKpzlBKFw/nDB9L5LP5lQwXemal1GiRp3wiK/lKEnRWuoNWEaupxK5jGjNGYt5rnkQ4d1iGTk2nvhhPQkrN9Ga2DS6Kfo/z0UZ0IIa0ZrJWPwczYPC6RY7krHx8QzrGSaJ1lNdVfC8RzsRcl1Cx3mpk+jo34CYpReKR5mFG3g1TEt471HET5zIROX9xlQ+332NwnVDqW94gsWOXwOUKOuNaAs3vEqYNpzeo+JL5E6cyBtTP2e3HNGWAFnLvqkTLTdY/XwQ/k/8E/HriOK/4nnbgGe/pGRJiJImP1UdvAw8uSztH2CbVwQT28a1RBc5mTTHrwyKbHNH+uZxbDFVNL1M5jXyhGd8TaROaIO2QSwrLjuMtXQZSxFtcehW3zkRZSBR3EgqI1oL+9/tgCGqJB3zfqZ3MNjnaC2kJ3RE32p86cVr73XC4G6O1pTChNZ6Oicess/JWjj4Xif85Yi2dB356MiznZQlWtHJXfPXMHSd3iNdDCote5n6gJ6ISbtxuKKTXuadbxKhb8+UPWVTvRGtZe9UHtBHMGl32XudspBfaxkCXojWysUv+2EMiGbazmtYKeJKylS6BRp52ml+opZhUqHieHZwK9mp37HhiPjZifgr4PS6cUTVC6LPghO2Mzc3x9FSG86gpSds4WPTma8Z0txA5Fs7bMcVTa9QwarJzZ7xFT9/WsRfQrSEP/MhKReLYzDW65n8NGMIk9bmufy8x8S28a3Qd5jKXvEz16LLbJoUTaBOIVrIWRZDkCGahL35YD7H+oldMPppHYuhCreOo5W2KX9ddRYzZs7/ZxLdjHXcz9HawpF6Okzda6vLosubmBQdiE4SbaVYlpqduI5ohQIFv46llbYFr28SP68wsWtSJPqmg1maWWDXz0Lu8XROiJ813tzI6OZamr24gpPCdgpOsW5aHJ8cKL0YStzoGjrGtItJkXqaDl5KiehcjqefQP5islJMoVoI9UK0QOEhFsW0wOAXQP1GIRi0Degy9nvOyOkEtxXo2cEtHFv4FPfqtNwT2piwYB119U3oNfEHTitYWq+waUpPQrVagkLDCNb706LfPNJu2LOqaLpbjWvWSc/4inJY+X3rbAa0C6Suth4NGjeyYdikZxzfnCwCy1FmdQ2k+5xjiNk185FPeSbcQHCLTkRFRNBrXBx9Q3syV4kF39hJYo8Q6mqDaGA00nZQMjMHNiQq4UAxaNZs1o3pSFBdA8ZQI8EtnmHmuzGERU23pVuOzqJrYHfm2Od8j3z6DOGGYFp0iiIiohfj4voS2tM59Fyz6qI6a6tqJwXf85IxmMHfOP1m0ZLOzOh6NH51fXGx8nbzUf9WBOiMNIuIpG2TYPxDn2DhcWE5Vi6ujyc6xA9tUCgNA/0J+/MUNuZYKV3nYDmSRHRgV2YdVZwc8nZ/RP9WAeiMzYiIbEuTYH9Cn1iITXR1BlXqdtsIeCdam2gTvx/bzbatOzmc7WSct51t7b1R1cFFDzfvDOk7trJ1+z5O5roPHxVkH2ZXSip7snLchq4qml6T0feGr61s1nwuHN7Ftl+3c+BMnvrPZ25eIH17CntOX3esAi2FjyWXE2mp7Dh8qdQitZJrLFzNSiN15xEuleMBUDcvpLM9ZQ+n5fClBMJK+FYuO/Gar4Vrp/aR+utWdh44xVUXdy26fpYD21PYdeTirf/k0XKNU/tS+XXrTg6cuurWz72qJy+oMQiUk2hrTHmqXFHfOHiVF6PaKiDxrbZVU60Uk3ZSrarjrldGEq2PTUA6uI8BdREn8XUBRB66RUDaiVtY5MkqQkASrY+Blw7uY0BdxEl8XQCRh24RkHbiFhZ5sooQcBCtMEz5lhhIG5A2IG1A2oC0AR/bgCB4Aar88w0CEkvf4OhJisTXEzLyvDMC0k6c0ZDfqxoBx4i2qhWpLflLB6/cmpT4Vi6+tUW6tJPaUpO1oxySaH1cj9LBfQyoiziJrwsg8tAtAtJO3MIiT1YRApJofQy8dHAfA+oiTuLrAog8dIuAtBO3sMiTVYSAJFofAy8d3MeAuoiT+LoAIg/dIiDtxC0s8mQVISCJ1sfA+8TBzdc4n5lBVvZ19081qmi6j8t8J8WVF1/TtXNkZhzn3DWnx/lYL7B28hCm/Jjt/ilQFS6Ild/XT2fIm98USyrK41zmOfLK7qZW4ZykAHUEymsn6lJuI7VMnZvJWjmaXhHhNG7elSlbS/ZBuw3p8pYaioBXor2+5hXCjcEEBQXZ38E0eGyu3EPTQ4WXx8FvHF7BmEea0/jpRZwp1QhbOPltHN3CdNTV6vCrYyC8z3Q2Obbjqmi6B6Vr0Glv+Bad/4XEmEiM2rpoDXq0WiP3x8xgk9h+qtTuPZVR6NLb5BVuGEEjv8aM+qUcz2asDHXuYpmqdmL6H2PbGQkOCibYGEJo00gefmkG6087dcpuE7sydX59LUMaBtDl7f+wP20LaWdLOfxt5iJvq2kIeCXanM+fIiDydb7dnUZamnjvYV9WjvuRVk0rfSXoq+rg1hx2JQ/mvpAmtG5aD133D8h08ruirAX0DqpP76SdXCmykn/sSwY309J05Aauiw1mKpheCcW94yJV8b2RwtsdAgjqHMfKg2KXJCs3z27jH6P6MvbHgjtOtOSfIGV9Kifl48Grl53Y9qPV8VhSKmm/7WTzmg8ZHGHA8FAi+0ue/X97OrvUueXITKINDzB1b8VJ/PYUkndVBwTKRbT1Os/gcEUNsDqU9g7ooEoEhf/jnf5/Z8neS2wUm4aXIloLR2ZGo28zofT+polR6Bq9yoaCiqbfgcLfgSw841vEqQWPUa/eI3zs3Htx1sl1RGvN5dDa+UwaMZiY/rEMnZjMxjNKaM/KlZ1LSV69H2XzJLjO/tXJfLWrZCdmy8VU/vHmKwx87q+MX5TCrve742/fj9aam8aK5JXsuVa8P6419xBr509ixOAY+scOZWLyRhzZOespv1cYAc924m4/Wsj519MYdI+y4FzJXsY3MtYyZ8xLPDcgluGTl7D9klMjaL3K3mUJjBocQ8xfX2fm6nRyreBc56Yj3/PB+Mdpom1C3wlJvP/pL/YI1g0y1s5hzEvPMSB2OJOXbMdZdIULLwVUOwTKT7RmayXNa1U7TCqkkKqDOySb2FSGaG+wKvYe/Acss41elUsLfniZEF1PPjqVV8F0p6GzIrwGfnrE15rNZ48b0D/+GdklbWXpEroQrWnLeKI69iNuxicsXpTE8OgQ/KMS2GdrT82kTY7Ev8eHZCnQFWXyQXd/x3603NzBOx0DCHpgEG/PmMKwbs24NyzY/X60mNgyPoqO/eKY8cliFiUNJzrEn6iEfTI6VLqWfHLk0U6EdNuI1kDM8nx7XhYyZnVBZxzM6rziU4UHPqRXg3vpNW4By1cuZlq/VgS3n8gWEVoin53TOhNo7MALb88iafIwHm7ZlYT00vvRFuz6hFEDoqjvV5+oAa/wt4lfcdRSyIEPe9Hg3l6MW7CclYun0a9VMO0nbinl93bF5EctQcAr0eZ++Qz6OnWpW+dP1NEG0zR6IO+uOy23dfJgAKoO7rjHDdFaz5L8qJ4GQ9eV2o7NtHUsLXUPMm3PyYqlF7OHQ4Oa+sUjvuZU4ttoCR+9CWVMWqaMLkQr9hV15mRTygRaGx4l+aw4651oc1c/T0i9XsxT9q8tPMrCJxt6IFqxjWmp3EiZ0BrDo8nYsiujrDxREQQ82okQaiNaLfc/P53ExOm8+bdHaRHcjH4LD9p9L5dvXmhIw0GruKJUWd73DAkzErvqGtbfvyLGaOSpJecc9mPNz+O6RcxOvEcn/87MsIcAy2z8nvsNLzRsyKBVVxz35n0/hDBjLKuuVaTE8t7qjIBXoqXwKheyc8i7nkv20Y0seDECQ0BXZstYstt6VXVwxx1uiLboNPMe0RM6fH0pojWnxtNG/yDT0k5ULL22E61pC3HNtTQfs+UWiBa4cZKUNUuYPyeJxLF9aKLvwmz7Ru3qI1ozu96KwFBqWqX0YijXRldU/42TKaxZMp85SYmM7dMEfZfZcmGhwy9890XVD21EW5fwrjE891RXmgXoaD30W84pkQvTNsa30tLsyXgSExPt7zH0aazjocRDmDa/TjPDw3x8SrmhRG/XOnclWtO28bTSNuPJeEVuIolj+tBY9xCJh5xC0yUi5bdagIB3onUtZM6/6Rego9f8M64p8rjcz412Q7Rc5Yun9QQMXOk0JwiF64cTpu9F8tmcCqYrXfOaXU0eG1DLUZKitdQbsIxcT0V0GdGaMxbzXPMgwrvFMnJsPPHDehJWbqK11+Gf56IMaEGNaM1kLH6O5kHhdIsdydj4eIb1DJNE66muKnjeo50IuS6h47zUSXT0b0DM0gvFo8zCDbwapiW89yjiJ05kovJ+Yyqf775G4bqh1Dc8wWLHrwFKlPVGtIUbXiVMG07vUfElcidO5I2pn7NbjmhLgKxl326daHOX0j9Az+OfXaxlUPimOKoO7sjCHdGa2DauJbrIyaQ5FigW2eaO9M3j2GKqaLoj8xr9xTO+JlIntEHbIJYVlz10KkoRrckWutV3TkQZSBQ3ksqI1sL+dztgiCpJx7yf6R0M9jlaC+kJHdG3Gl968dp7nTDYF0OVanRNKUxoradz4iH7nKyFg+91wl+OaCvFHj3bSVmihaus+WsYuk7vkS4GlZa9TH1AT8Sk3W6nyMw73yRC354pexyO6ihDqToXotIT6GjoxHsHi0erlr1TeUAfwaTdZe91CJFfah0C6kRrzSb1uw0cuWoPaRScZt24KOoF9WFBSTe+1oFSkQKpOjgWrp0/wYmsDJa/3BjdQ5PZcvwEJy/aVlhwc3McLbXhDFp6whY+Np35miHNDUS+tcN2XNH0ipSrutyrhm9R1iL+EqIl/JkPSblYPFNrvZ7JTzOGMGltnsvPe0xsG98KfYep7BU/cy26zKZJ0QTqFKKFnGUxBBmiSdibD+ZzrJ/YBaOf1rEYqnDrOFppm/LXVWcxY+b8fybRzVjH/RytLRypp8PUvba6LLq8iUnRgegk0VaKaanZieuIVihQ8OtYWmlb8Pom8VssE7smRaJvOpilmQV2/SzkHk/nxHUr3NzI6OZamr24gpPCdgpOsW5aHJ8cKL0YStzoSrSYdjEpUk/TwUspEZ3L8fQTCNHyr3YioE60lmMsfOpedNp7CG0cRrCuLvomvZj4w2m5UtKDPag6uGkzrzerW2bfX22H6cXSrFfYNKUnoVotQaFhBOv9adFvHmnK70sqmu5B55p0WhVfrPy+dTYD2gVSV1uPBo0b2TBs0jOOb04WgeUos7oG0n3OMcTsmvnIpzwTbiC4RSeiIiLoNS6OvqE9mat0Im/sJLFHCHW1QTQwGmk7KJmZAxsSlXDAXl/ZrBvTkaC6BoyhRoJbPMPMd2MIiyquT8vRWXQN7M4c+5zvkU+fIdwQTItOUURE9GJcXF9CezqHnmtSTVRvXVXtpOB7XjIGM/gbpx84W9KZGV2Pxq+uLy5Y3m4+6t+KAJ2RZhGRtG0SjH/oEyw8LizHysX18USH+KENCqVhoD9hf57CxhwrpescLEeSiA7syqyjJfOvebs/on+rAHTGZkREtqVJsD+hTyzEJrp6wyq1u00E1InWJtRC3pl0dmzdyvZ9J8mVEQ9VqFUdXPXOksSC7MPsSkllT1aO29BVRdNLcqp538qFrzWfC4d3se3X7Rw4k6feKbx5gfTtKew5fd2xCrQUKpZcTqSlsuPwpVKL1EqusXA1K43UnUe4VI4HQN28kM72lD2clsOXEggr4Vu57MRrvhaundpH6q9b2XngFFdd2r6i62c5sD2FXUcuoox7vYpULrBc49S+VH7dupMDp6669XPlUvlZ8xEoB9HW/ELeyRL4xsHvpMY1Ky+Jb82qr6rSVtpJVSEv83WHgCRad6hU4Jx08AqAV45bJb7lAEleYpuekTBIBKoLApJofVwTkgh8DKiLOImvCyDy0C0C0k7cwiJPlZLvjQAAIABJREFUVhECDqIVhinfEgNpA9IGpA1IG5A24GMbEAQvQJV/vkFAYukbHD1Jkfh6Qkaed0ZA2okzGvJ7VSPgGNFWtSK1JX/p4JVbkxLfysW3tkiXdlJbarJ2lEMSrY/rUTq4jwF1ESfxdQFEHrpFQNqJW1jkySpCQBKtj4GXDu5jQF3ESXxdAJGHbhGQduIWFnmyihCQROtj4KWD+xhQF3ESXxdA5KFbBKSduIVFnqwiBMpJtFZu/n6SjKMnuHxTPpBTra7uiIObr3E+M4Os7Ovun3rkLV2tANU87Y7gW80xkOp5R6A8dmLJO8/xIxmcyXXewfgmh1dMZtiQ15j980kKLCdY8dYsNto3hPee8528wsqFtZMZMuVHsmWzfCeBv+W8vBKt9fJmEp9uTWCAkbAQf7TBDzDsq+Oe9/y8ZRVq1w3lcfAbh1cw5pHmNH56EWect7S8voZXwo0EBwURZH8HN3iMubZn5QqcLJz8No5uYTrqanX41TEQ3mc6mxzbdXlLr/lYq+Fb+PMoWrUYwY+3/Dy8mo+LLEFpBNTsBMspvo3rRpjOD71BS526QUQMW2Xbj9Z65Uv6Ne3DW/Mm8UTzhrSNvp/GEfFsK8fjNUtrUHxk2jSeiJBggoKCMYY0okWnJxiVvJWLzn7v7sZynbPvAFVqT+Ry3SgvusMIqBOt9SrfDbkX/wfH88slC1hz2Tm9O4FBj/PpaZ9Yyh0ubuVnp+rg1hx2JQ/mvpAmtG5aD133D8h0hjHnc54KiOT1b3eTlpZme+/Zl0WO/XnkRVkL6B1Un95JO7lSZCX/2JcMbqal6cgNiP1/vKVXfukrPwc1fAu+jiXAEMPy/MrXQ+ZQvRHwbCdWfl8+kJB60bz96yXMWLlxaitffrmZi2JUWHiKHVszbP5kzT3Gr+s3kn65ZEOAWy21zSZ1j5GUmsbu1P/wVUI/WukC6fnhEffRqFvKQBLtLcFVhRerE23hOobW19PnU/uGyELRa6sYZPTnL/+U+9G6qzfPDi6c+H+80//vLNl7iY2jm6J3R7T1OjPjsDvHtnBkZjT6NhNK73+aGIWu0atsKPCW7k7bmndODV/PRGvlys6lJK/ej7IRElxn/+pkvtqV4wDBenUvyxJGMTgmhr++PpPV6cVbyFtzD7F2/iRGDI6hf+xQJiZv5IxTtDE/43tmjX6BAQMG81riag6VZOKQLb/cWQQ824mZ396ORNf2DXa4bBJg09Cay6G185k0YjAx/WMZOjGZjc6VDeRnrmde/FBiBwxg8MipfL79okfSLGuTuayMDUbbZRYZRWLsomJb1ivsXJrM6v1OBnV9P6uTv2JXjugVuCHa/EzWz4tnaOwABgweydTPt3PRXXNyZ6vjrs9NnWjzlxNjMNBvqdMEhWU/7z6oJ+KtXXc9eO4A8Ozgzle72/gdECNaG9GasZaZc7nBqth78B+wzNbbVqQV/PAyIbqefHQqz0u689BZubvmfarhW7ZRU8pnJm1yJP49PiRLgaEokw+6+zv2liV/J9M6B2Ls8AJvz0pi8rCHadk1wbY36ZbxUXTsF8eMTxazKGk40SH+RCXsK25cc39ieDMjnUcls3zV58x+/XU+s2/yreQuP+88Ap7txErO6sE09GtE31kpiECd859py3iiOvYjbsYnLF6UxPDoEPyjEthnv86U/jG9GwTQsu9oEmbPIH5ge4IN7Xjt5ytud38qa5MF/DSsIbroJI5aTKjaljmNyZH+9Pgwy7ato9CzKPMDuvvfzzu2TeddiNaUzse9GxDQsi+jE2YzI34g7YMNtHvtZ66UaU+cSy2/VzYC6kRr3sM792sJjfmS03ZDM1/4kZFttDQdvamydauR8j07uHNxPBBt7pc8o69D3bp1+FMdLcFNoxn47jpOi5639SzJj+ppMHRdqe3aTFvH0lL3INP2nFRPV1oKZzVq4Hc1fMs2akoBvRGtld+/isFofIol55QWyUp+ngjIC+yVc+LARMqE1hgeTeasFcy/TSbS/2E+PqUwePEt8n/VIqBmJxSd5fvRnQiuUxdj5AAmL9uHbYBoU9laijBNKRNobXiUZFHZXOXr5+tT75GPOK4QtDWbf/cPwfDwRyjbGDuXvLRNWrm2dy59G+hoPyWteGs8FdviFon26tfPU7/eI3xUohzZ/+5PiOFhPnKnnLOi8nulIqBOtFjJ/nEMHYO1BIbfz4MR4RiNTWhs1NL2jR2VqlhNFa7q4I5CeSBaCrl6IZucvOvkZh9l44IXiTAE0HX2YSg6zbxH9IQOX1+KaM2p8bTRP8i0tBPq6ZJoVUa0Jja/3gzDwx/jiS9vnExhzZL5zElKZGyfJui7zMa2Ru3GZsZF6Al5aBgf/HCIq5JvHVZelV+8+6GZ7B2f88YzEQTW0dNy0L84poSSb5wkZc0S5s9JInFsH5rouzBbVLbpV8Y019Pt/eOOEaZtE/jPHkcf/CLfuVmEZyPaOvfQuE1b2jQPpZ42iPsGL2K/0zoCj7Z1S0Rr4tcxzdF3e7/UBvLWi5/xuD6YF90pV5UVdJfl7YVoi9Gw5J7gt83/5b+/7uXM1d+Y0t6fXsln7zKoyldc7w4u5HgiWtc8cvh3vwB0vebbetNfPK0nYOBKp3lGKFw/nDB9L5LP5qCe7jwqc82n5hyr4Vt69OBcJm8j2kLWDa2P4YnFOBZwO243k7H4OZoHhdMtdiRj4+MZ1jOshGjFTNmFrSwY3Ze2QVpCOsfx/VnJtg74quiLmp2UVqmAY4v7c69fGH/76SbmjMU81zyI8G6xjBwbT/ywnoQpRKusWVmUXWrUm788BoP/QFbeLC1ZHNlsUtuDt9b8xPpftrHvzHUnkvZiW7dEtMU2rO+zqPRPfWzTf/4MdKdcWXXlmUpCoFxE65y35dAMogM68O5+JXbinCq/l8/By0u0uSztH4D+8c9s5LxtXEt0kZNJU3reFJExqwv65nFsMZlQT68ddaOGr2eitbD/3Q4YohI5pJiteT/TOxjsc7Rmdr4Zgb79FGxTX85QmVKY0FpP58RD9gUv9nkxZUTrdK35wjpGttUROfm34rCgU5r8emcRULOTMprk/Ztn9Xqe/Pz/bNMC+s4ldmI5+B6d/O0jWvNu3r5PR7s3dzrVr4X0hI7o273JTodfluTg2SaFS3uxLbEepoOBKIftgXn/dDoY3M3Rmtn99n3oXPSwpCfQUd+ON90pV6Km/FbJCHgh2iJ+P3WSXFvjZCU/ay0TuhgJi1mK7LS7rxl1B7dw7fwJTmRlsPzlxugemsyW4yc4eVHMBVrJTv2ODUeu2hv0Ak6vG0dUvSD6LDhhy+zm5jhaasMZtPSELXxsOvM1Q5obiHxrh+3YW7p7jWvWWTV8bY2a/i/MO5xFVpZ4n+Bkdp5tBJGzLIYgQzQJe/PBfI71E7tg9NM6FkPd3Dia5tpmvLjipA3LglPrmBb3CZi2Mb6Vng5T99rOF13exKToQHR2ojUd+S8/pucWj1Ju7mFqRwMdpu/3uAq1ZqFdc7X1aCfWS6xNfIsl2y/Y6lP8ZHHPB4/TwL8rsw7fZNv4Vug7TGWv+N1s0WU2TYomUGcnWgpJndgObaNnWHiweCXwjSOLGRjuT8fpe53ItwQ3daJVty3IYVlMEIboBIrNdj0Tuxjx07ojWihMnUg7bSOeWXiwOOp14wiLB4bj33E6e910Akq0lN8qGwEvRJvDylgj2nr1ubeREYM2iIjYuey4WjvCkJUBrkcHF5mZNvN6s7pl9v3VdphuW6p/bOFT3KvTck9oY8KCddTVN6HXxB8cC9GwXmHTlJ6EarUEhYYRrPenRb95pCmr/72lV0aB77BMNXwLfx5OWN0/lcLXL3Iyv4lG5sZOEnuEUFcbRAOjkbaDkpk5sCFRCQeKS2C9yPr4aEL8BLYNCfQP489TNgJmjnz6DOGGYFp0iiIiohfj4voS2nOubfFLwZY3iAysR6M2EbRqGICx4+usPS9Dx3fYLMpk59lObrB9Zh/C/f3wr38vYcF6tMYHePnzQ4gpVvORT3km3EBwi05ERUTQa1wcfUN7Mte+mMh6NZWkJ5pi8AugfqMGBGiDiHxpCYfchI2FUgXfv4QxeDDfuE1Xty1x/42difQIqYs2qAFGY1sGJc9kYMMoEg6I0Y+Fo7O6Eth9TvF6AetVUpOeoKnBj4D6jWgQoCUo8iWWeFKuDGryRGUh4IVoRa8uj7PpO9i6dSeHzueXmpuoLKVqslzPDl6+UlnyzpC+Yytbt+/jZK77bmhB9mF2paSyJyvHfS/aS3r5NKmeV1UIX0suJ9JS2XH4UvFopkwRi7h+9gDbU3Zx5GLplS03L6SzPWUPp6+X7WQW5Z1h//atpO4/w3XJsWVQrYoT3uzE4Wc7D3L+hkud3rxA+vYU9py+7qG9M5GTuYeUrds5cNZ5zvX2SqpmW0KiWCOTlrqDw5fK93gqU04me1K2sv3AWWmPt1clPr/LO9H6PMvaLdCbg9fu0ld+6SS+lY9xbchB2kltqMXaUwZJtD6uS+ngPgbURZzE1wUQeegWAWknbmGRJ6sIAUm0PgZeOriPAXURJ/F1AUQeukVA2olbWOTJKkJAEq2PgZcO7mNAXcRJfF0AkYduEZB24hYWebKKEHAQrTBM+ZYYSBuQNiBtQNqAtAEf24AgeAGq/PMNAhJL3+DoSYrE1xMy8rwzAtJOnNGQ36saAceItqoVqS35Swev3JqU+FYuvrVFurST2lKTtaMckmh9XI/SwX0MqIs4ia8LIPLQLQLSTtzCIk9WEQKSaH0MvHRwHwPqIk7i6wKIPHSLgLQTt7DIk1WEgM+I1nztPJkZWWRfV57aXkUlquJsy+Pg5rwLZGUc53zebWJlvsb5zAyysq+7f6aut/Qqxqgi2ZcH34rIL++9RXnnyDxX/Bzl8t4jr7tzCNyunch6vXN1dDflVE6ivcHhFWN4pHljnl50xmmbJ/F8sJN8G9eNMF1dtDo/6hjC6TN9k5vtxu4OWNUc3Hp5I+89ex9GvQ6D3o8/6Zrw6NT/cVl5Atz1NbwSbiQ4KIgg+zu4wWPMtW18KvCzcPLbOLqF6air1eFXx0B4n+lscuzt5i295teBGr6mzRO4r76RRh3/ztpLCqhOZbZeZcO4ToQZGxA9/TenhFv9WsiGEY3wazyKX8r3VLxbzUBeX0EE1OyEwp8Z1aoFI34s/ZhNkPVaQdjl7R4Q8Eq01pxdJA++j5AmrWlaT0f3DzKdiLaIrAW9Carfm6SdVyiy5nPsy8E00zZl5AaxI83d96fm4Oa0+Yx+Zzl7LpnAfIH/juuA3q8N8dvtzzTO+ZynAiJ5/dvdpKWl2d579mWRYx/4FmUtoHdQfXon7eRKkZX8Y18yuJmWpiM3IND2ll4bakMN3+Lde1rQOjyAbu9nONlpccmLTs7n0eC23NdaS9jw9RWCI/9ECutTT+L2WfEVkixv9gUCanZCwdfEBhiIWe60+7o9U1mvvkBfynBFwCvRFv7vHfr/fQl7L21kdFN9aaK1HGFmtJ42E1IwKZItB0mM0tHo1Q223TCU03fLp6qDu4Bg2+tSq+epL3KKUwTR1uvMjMPuQsoWjsyMRt9mAiklYHMwMQpdo1fZUOAt3SXzGnqohq+NaANjSZjUAcN9k9hdak8GM2lTHsD4+GxmPGlwIloruYfWMn/SCAbH9Cd26ESSN55x2LM19zdWLPyJY9nbmPfaIAaNXWbb0jA3bQXJK/dwTQycrbn8tmIhPx2/xtE1iYyMjeGF1+fyy1lFAfU8amhVVGu11ezEM9FaubV6BfIz+H7WaF4YMIDBryWy+pCylVa1hkcqd4cR8Eq0Dn1Mm8oS7Y1VxN7jz4BlzqPXAn74/+y9C3RM5/7//0PmkpAbEpdEXBtpK6Tidmgcqe+pthRRvVNFkbpE21RREQ3VU4eotudQp0dRtFotpRdZlMQ1cVmuIcmK+z+oLBErkpWZNTPr9V97bpkZkz2JTK4ea42ZvZ/93F6fz2e/9/Psnf285o+y/xIuPIQrmcgGuBWm6UfpzkkEK1oz4Tfz/KNVaLUY7pv5LGJDTDM8n19rHL1aiir56TX8lf1ZcqHQRXrDMIYcX5PQvsim00sY4BXEhF9tTnp3tzM+OJAXN+Wy+hkbodXsZnpEd4bGLuCzlV+QNC4Sf88IEo6aLnZMC38/Rr++oURNSmBewjrjFP7J+T3w7LkA4zWR7iTze6jp2q8foX3HMHtBPCO7NsXzifkclbTWRR0WW4pv9xGQ85PyhVZHpexKAdvGtcOv50SS123gq0VTmPLlSefPTbiva6KkekigSkJruJzMQFULxmy1vVGlYc/UDii7zcV8rqqHWB68ybIBblus4SbfvdQaRZfp7LXMPxZ8zbOqxjRp0phGjRX4Bkcy8sOtXJRO1obLJA9U0WLMVrsl3jR7ptJB2Y25Gbny6Q3EGHJ8LUK7uTiP1c/60jxmPbeMFywGrn89FP+Osewqvs1/bYVWQmt7UaNJZUYnNQOTLxuXSDPNOigInZrCHav9nJ2QlbQYnMxp822/4p2TaKeKJOmsSbDl6rAWK364jYCcn1ROaGXsqj3MrDBPBvzrwn23KdzWEVFQgyBQJaHVX1zKk6oAxm23FVotaXGdUQmhlXEQPVc2vkSwugtv7ci3WfOylNvX8sgvvEtB3ll2Ln+JULUXvRedBv1Flj6pImDcdjuh1abF0VnVjbnpOfLpD5PQlkDB5pcJaDaIzy7qQZ/Jx32a0X3ecXTcL7RQRG7qZlYtW0xS4lSi26roteic8eRpFFp1BIknbafznQmtJz0XnLaOZvSXlhHl2YV39lumj8uvQ8ZRRNIDEnCf0MrZtYhd00JR+T/B2E9+4tTthjFr9IDIRTYZAlUSWm6v5hmVFyO/tZmio5Tt4wJRRSVz2XakINOIhpQkG+DGjhq4/ecsIn1bEr3kmIuHafL531AvlFHLgNusfkaF18hvsaO9fRyBqiiSL+e7SG8YxpDjax3RSqPK4p1MClERkXiCorSZPOITbRJdR6HVZrJyRAg+QX2ImTCVuLix9A90EFpPx/vmroXWcHk5Az3ND7q5qKMh+X9d6Yucn1RuRGsvtHZ2lTqru8ae5ZMZ3MUHhX9PYn+8LEa3dcUJ6lA7qia0mr1M66AkbFY6lut2afSwsJeKkNjd1gdK6lB/q70psgEOFKUv5u8t/en7YSoFLrWvgDXDvFA99aV0o4+90zqgDJtFehlsMhf2QhUSy26Nq/Rq73qNVCDH105o0XJ4VhjKTm/w7qjWtBy1wTyNbD+i1aTOoJOqJ4mnzCNW4/1WT/sRbRWF1lUdNQLuIatEzk/cKrQWrtprbJ3QxRifh63xaUkU3w87AddCq7vD1ZwcsjPX8VobJU/M2s35nFyu35WmSYrZFdsBRdAo1uRI08caLm18lRB1GO/tt51OfngwywW49vwqhrVV0/GlVRzKyiY7W/rkkHtDGqMayEv7gR1nbpunH0u4uHUaEU19iF6eYwRYvCuWDoogRq3JMU4fay5t5NUQNWHv7Tduu0pvCFaQ42svtKDLXERvZSMaNWnHpD8sf8rhILR7p9NRFc6cI5K/6rmZEk+kt9K9QuuijoZgl7rWBzk/MQmtiv9betocg9nk5OZRqK/kTIXmDL/9fIIC44xxMRlzuqMOn8cx27sMdQ2MaE+tEHAptJpdU2jXxHHJIAXh844ZG2y4lcLs/gEoFD4EBPqi8mzP0KXpdtObtdKzWqq0/AA3cGXFINSNHFn+PxQ9PzI+yXpuxRBaKxU0C2hDoK+SJqq2RM38iYuWwDXcImV2fwIUCnwCAvFVedJ+6FLSLXPJrtJriYk7qy2fL5T88DJ+Lcfws+Uaz3CFlUP88IxIMD39a2zIHdaN8CF40k5Ts7Rn+PzZINS+7ekREUpo1DRiBwfQ/9Mc0z3aswvp7d2XxdaXhkjZdJxd2Bvvvosx7tadZWFvb/ouNt3XlY4w5P2bwd5hzJKGNy7qMDVE/O9OAnJ+Ir2wYlxgExrZLg3qIdmqpHJ2LdnNO2HeNG3VmdCOLfHy686ULVfF1LE7DdlAynIptBXrZwl5pw+SmpZBdv7DPW8iG+AVgKkrvMSJ/XvYs+8ouQXOWZbkneZgahoZ2fllU/Y2ZbtKtzm03v2sKl/nHS7m2ol9pGZc5K7L6XznJbjeWxN1uG7Fw3JE9fiJE3r6Qi4d28eetGNcMs7yOTlG7HroCbhJaB96jlYANRbg1hofrh+C78Nl7wftrfCTByUn8lUHASG0bqYqAtzNQB2KE3wdgIhNpwSEnzjFInbWEgEhtG4GLwLczUAdihN8HYCITacEhJ84xSJ21hIBIbRuBi8C3M1AHYoTfB2AiE2nBISfOMUidtYSAavQSo4pPoKB8AHhA8IHhA8IH3CzD0gCL0EV/9xDQLB0D8fyShF8yyMj9tsSEH5iS0P8rm0C1hFtbTekodQvArx6LSn4Vi/fhlK68JOGYsmG0Q8htG62owhwNwN1KE7wdQAiNp0SEH7iFIvYWUsEhNC6GbwIcDcDdShO8HUAIjadEhB+4hSL2FlLBNwktFoKr2WTef4qhZbXBdZSh2q72ooEuObOVbLOnudqebC0d7ialUl23l3rsmt2/apqul1h9WujInxrokf6witkXSkUr9urCdgPUEdd8ZMHaLrI0gAJVFBoizi9/m2eDGnDM19csjm5GLi5cz7PdfVDpVSj8miEsu1A5vxx02aN1QZITaZLcgFu+GsXic+F4uuhQKX0oJGqDQPnpvCX9bV/OnK/j6VPoJImCiUejdUERc8jxXpAVdNlGl5PkuT4anbNoGtzP1p1n8SWG1aoZT0z3GbHtB4E+rUgct7hsv2V/lXKjvGt8Ggzkd8t71WudBkiQ3USkPMTa72GW3w3phMtAnvyQZowpJWL+OF2Ai6F1pB/kOTRXfFv24ngpkr6fpJlI7Ra0pdN5oN1GdzQgPbab0wLV+HROY59zl/T6/YO1LUC5QJcm76MyR+s5XBeKQbdDXa9G4FaEc6H5uU+9NnLGeTTnEFJB7ilN3Dv3NeMbqcgeMIO7kpry1Qxva6xepD2yPE1rt6jak+nIC/6fJxp46emmvS5yxjo24WunRQEjtv+INVb89zLSWV7Wq6L9YSth4sfNUxAzk8sTTFc+w//8OtI1y6eBI3fgWV9J0u6+BYE3EXApdCW/vEBwyat4siNnUwOVjkIrWMzTMtMKVRDWJ3vmPZwbFckwC0kdMfmEa7w5zXjcjM6znwUiarzDFI11iM4mRiBstWb7CiparqlzPr9LcfXtExeDAnx4ai7xnPI7mJPS/rsx/F7ahELnlbbCK2BglNbWBY/ntHDhxEzZibJOy9Z11I2FBxm/YptnMvby9K3RjFq6lrjkoYF6etJ/jaDO9LA2VDA4fUr2Hb+Dmc3JzIhZjgvTvmU3y9bGiBfR/22SN1svZyfmFqs58KyKHz7LmLvv5/GO+AVfrhT1hfndpdMfYoty+IZP3o4w2LGMDN5J5cs8Wrxg3N57F36FqNGTWVtpk4+j1Sl/gb7/vMeY2JG8ErcF6TlZfPrl99w4JbRubh1YA3Jm47ZrIh2l2ObkvnmoOkkWy1tKkMhfrmBgEuhtdahSamA0Jayc1IwitYT+O0hnYlxHeAWojqyl0fj02wQyy9IC1oWsSGmGZ7PrzWOXi1Hlfz0Gv7K/iy5UFjFdOOimZZi6+23HF/LerSbTi9hgFcQE361rB8I3N3O+OBAXtyUy+pnbIRWs5vpEd0ZGruAz1Z+QdK4SPw9I0g4anrYQHdyPj08H6Nf31CiJiUwL2GdcZm8k/N74NlzAaelw4yLxavp2q8foX3HMHtBPCO7NsXzifmm5flc1FFvjVGHGy7nJ8Zm6zNZ1NubAf/KQXdzDc/7+ROz/pb1lpdzu2vYPT2C7kNjWfDZSr5IGkekvycRCUdNz1IY/cCTx/r1JTRqEgnzElh3qlg+D8Xsn92Dpj6PM+r9Bcwe24d2nUMJ8XqMDzKkCzUt6bPC8Oz3T7ItIazP4pO+njz6QYZxDXD3t6kOG7aeNs2tQmu4+R0vtVbQZfreh3ZKTT7ADdxMSSZ+5jQmxkQSHNyP2I1ZptGT4TLJA1W0GLPVuIi7xZ80e6bSQdmNuRm5VUs3C4el3Pr6LcfXIrSbi/NY/awvzWPWYxwUYOD610Px7xjLrmL7hd8lDgbb27maVGZ0UjMw+bLxpGs84SoUhE5NoWzA42yBcCUtBidzusREtnjnJNqpIkk6axJsuTrqqy3qcrvl/ERqt+74PLp7D+KzS5J63WbDqOb4PLOa62ZfcG73+5yF1BmdUA9M5rKUzyi0ChShU0kpcxZHB7PPU7CJF/ybErXUtP4xlHJ2xdO0VDxaQaGthjbVZcPW07a5T2j1V9j4UjDqLm+xI9/2zFVPyTxgs+UD3CK0M5j8+hC6tWxKmwHvsO2qHvQXWfqkioBx2+2EVpsWR2dVN+am51Qt/WES2hIo2PwyAc0G8dlFiW0mH/dpRvd5x9Fxv9BKswm5qZtZtWwxSYlTiW6rotci0yLuxhOuOoLEkybBNLmFM6H1pOeC09anxPWXlhHl2YV39lumj8uv4wFdTWSTISAfh1oOvheKz//9m6vmU1Xhj68S0DSaFUbhlTRzPj3us7upwqLcVDavWsbipESmRrdF1WsR5yS9Ns9sRCSetPqBpYnl5dEefI9QdU8WGKdGTEfrsz6hr2clhFaaD3NjmyxtFt/uI+AeoTXc5s9Zkfi2jGbJsWL3ta4eliQf4PYd0l9ew4hAD1q/8Yvxqnr1Myq8Rn5rcy8GSrePI1AVRfLlfKqW3jAufuT4Wke00qiyeCeTQlREJJ6gKG0mj/hEm0TXUWi1mawcEYJPUB9iJkwlLm4s/QMdhNbT/kQIroXWcHk5Az07Eyc9FeiiDnuvEFsCnpqvAAAgAElEQVTuICDnJ5Ts5u32Hni2fZTIyEjTp3sIPo1V/O1T08OeRqG9z+5aMleOIMQniD4xE5gaF8fY/oEOQmt/wSVN/crl0aRMJlj1Nz7NscwLQ+WEVr58k/hXrk3u4C/KsCfgBqEtIn3x32np35cPUwus9zjsq3l4tmQD3BGDNIodoEAZ/bnxXsveaR1Qhs0i3TIIQk/mwl6oQmLZrdFQtXTHyuvnthxfO6FFy+FZYSg7vcG7o1rTctQG8zSy/YhWkzqDTqqeJJ4yj1jN99nsRrT3nXArJ7Su6qiflqjbrZbzk3s7xhPUtB/x3+9gxw7LZyufDAtEZb7v7lRojbcVVPRMPGUesZr9wG5E6yBqLvLoTiTQXdWJGWVPQJpH05YRrY5jH4ajjkjE4qJojzEvXG26R+uifKdC6ypP3TZtvWyda6HV3eFqTg7Zmet4rY2SJ2bt5nxOLtfvSldgWs6vGkZbdUdeWnWIrOxssqVPTi43ihrGCKqyVi0/wPVkrUsg6YdT3Dae07VcT4knsqmS8A+PGKsp3hVLB0UQo9bkGKePNZc28mqImrD39hu3q5pe2b7UxePL5wv2Qgu6zEX0VjaiUZN2TPrD8scbDkK7dzodVeHMOSI9vafnpmQTb6X91HFVhdZFHXWRc31vU/l+cocfXgmgmc20saWv97a/SRvFY8zO0JrEztHumr1M76gifM4RYzzqb6YQH+mNUlZoXeQp3cO0jgqCX96A9JC69uqvxPfxo7GHRWghf+1wfNSRJBy5B9orbJ/ZCz8PhVloXZRvvnC0va2Bq35YgIhvtxFwKbSaXVNo18RxySAF4fOOgeEKKwapaXTfEnsKen50xm2NrE8FlR/gBq5viaVHcwUK7wDaBPqgaOJD1xdWcMTycKzhFimz+xOgUOATEIivypP2Q5eS7q70+gSynLaWzxdKfngZv5ZjMP61lJTfcIWVQ/zwjEgwPf1rLPMO60b4EDxpp6kG7Rk+fzYItW97ekSEEho1jdjBAfT/1PRwiu7sQnp792Wx8SacpVE6zi7sjXffxeZ7c2dZ2NubvotN93WNVef9m8HeYcw6LJ095euwlCq+3UegXD+59xOvBfjx3Oq8+2ffincyOURNt7lHcW53LWc+f5YgtS/te0QQGhrFtNjBBPT/FOPMr+5+P5AGI7J5MJC3NZZwnyao/QLw8+vE0Omv0E1dJrQUHSCxnz9NFD608POjy6hkPhrZkoiE48bBjmz5D9Qm99lBlGQi4FJoBajKESg3wC3FaG6RdSSNPXsOcvravfuDHSjJO83B1DQysvOxziJb8rsh3aaoevfTJd8H6lEx107sIzXjInerbSKmJup4oM43yEzV4ycmVMXXTrAvNYOLlXAWV3l0+VkcTj3AmRul6OwehjKbR1dATnoa+0/fsHtY0mI8V+VbjrP9fpA8tvnF74oTEEJbcVYVOrI6A7xCDWjgBwm+DdzAbupeffYT+4eh3AREFFOrBITQuhl/fQ5wN6OoluIE32rB2uAKrc9+or+QzCC/SBJP2P5JWYMz0UPVISG0bjZ3fQ5wN6OoluIE32rB2uAKFX7S4ExarztkFVrJMcVHMBA+IHxA+IDwAeEDbvYB6TJBgir+uYeAYOkejuWVIviWR0bstyUg/MSWhvhd2wSsI9rabkhDqV8EePVaUvCtXr4NpXThJw3Fkg2jH0Jo3WxHEeBuBupQnODrAERsOiUg/MQpFrGzlggIoXUzeBHgbgbqUJzg6wBEbDolIPzEKRaxs5YICKF1M3i3BLj2DlezMsnOu3vfKiDG5lY13c19rsni3MLXDQ3WF14h60ohZa+Cd0Ohogi3EagrfuK2DjkUZLi2hVmvzuanvGp7w4pDjWKzKgQqKLRFnF7/Nk+GtOGZLy45Obm4Sq9KE+tX3ooFuIGC3+Lo2boFbQf/C/OSpdI6W+R+H0ufQCVNFEo8GqsJip5Hyl+WYKpqev1i6ay1cnw1u2bQtbkfrbpPYssNCzObUgy32TGtB4F+LYicd9gmobI/S9kxvhUebSbyu/SKZPGvzhGQ8xM0u5jRtTl+rbozacsNJ29nM3B7xzR6BPrRInJeNffNQP7hb/l88wm7VbtcVep00QNXmUR6rRFwKbSG/IMkj+6Kf9tOBDdV0vcT0zJSlha7Srcc97B8ywa4BcK9NN59LIDHHg9G+egHZJjfs6jPXs4gn+YMSjrALb2Be+e+ZnQ7BcETdnBXeuV9FdMt1dfnbzm+xkUFVO3pFORFn48z77sg1OcuY6BvF7p2UhA4bnuVMNzLSWV7Wi4P96KQVUJYrZnl/ISSjcR4qWjfKQivPh+T6Tgtoc9l2UBfunTthCJwXLW2U3oX8qH3u6Lu8zHnHdshU7MQWhk4dTDJpdCW/vEBwyat4siNnUwOVt0ntK7S62Cfq7VJsgFurFnD8QW9CXhyMT8lRqK2Cq2OMx9Fouo8g7IVs3ScTIxA2epNdpRUNb1au11jhcvxNa3eE0NCfDjqrvEcsntRtJb02Y/j99QiFjytthFaAwWntrAsfjyjhw8jZsxMkndeQmPukaHgMOtXbONc3l6WvjWKUVPXSqsVUJC+nuRvM7gjDZwNBRxev4Jt5+9wdnMiE2KG8+KUT/ldWo7F+E++DvNB4suNBOT8xCS03sQkxBOu7kq8vaOgTZ/N435PsWjB06hthNZQcIoty+IZP3o4w2LGMDN5J5csjiK13XCbI2sTmDh6OMNfnsJHm05QYJDco7x8JZz6fjGxfw9E0W4I7yYt4pO1hygwGLh1YA3Jm47ZjHLvcmxTMt8czDdSsght4sHjfJc4kRdGvMBbH/3EecuVn6GAU1uWET9+NMOHxTBmZjI77RrrRtiiKJcEXAqttQRNilOhrXC69cCG/UM2wKXJ4azlRAc+wYfp9zi70FZoi9gQ0wzP59caR68WSiU/vYa/sj9LLhRWMb0Sl8uWyuvgtxxfyzJ5m04vYYBXEBN+tSx7BNzdzvjgQF7clMvqZ2yEVrOb6RHdGRq7gM9WfkHSuEj8PSNIOGp6/Z3phPYY/fqGEjUpgXkJ64xT/Cfn98DTvHapac1PNV379SO07xhmL4hnZNemeD4x37RqkIs66iDmet8kOT+xCO2Lm06zZIAXQRN+tRO07eODCXxxE7mrn7ERWg27p0fQfWgsCz5byRdJ44j09yQi4aj5OYp7HJjbE2+/cF58fyFJs8YyoENvEk4Uy+QrInXpeJ7r5odHQCQjXx/L+I9+5aZBS/qsMDz7/ZNsS9jqs/ikr6dpaTzJA0/Op4fSn3YhITzx8vssmPM6Pf0VBL32AzcNoNk9nYjuQ4ld8Bkrv0hiXKS/aRUr8VbHWvFtIbRuxi4b4IarfDOiDaHTdiM95pRpK7SGyyQPVNFizFa71Tk0e6bSQdmNuRm5VUs3C4ebu1vjxcnxtQjt5uI8Vj/rS/OY9ebF3g1c/3oo/h1j2VVsvx6t1AGD7e1c46LYagYmXzbeuzOe0BQKQqemcMfaW2cLvytpMTiZ0yWmg4p3TqKdKpIk8w14uTqsxYofbiMg5ydWod1cTN7qZ/FtHsP6WyYnMFz/mqH+HYndVczt/9oK7X2OQuqMTqgHJnNZGrX+9Q3D/fwYsuqK9Z6v4V4hdyVhsze+XT7nU8cVFFqFLwOS0s0XCQaurRqCt3oQn0kNwmBthwRVkzqDTuqBJBvT3IZZFFRBAkJoKwiqooeVH+AGbv08lvYhY/jJGNQOQqu/yNInVQSM224ntNq0ODqrujE3Padq6Q+T0JZAweaXCWg2iM8u6kGfycd9mtF93nF03C+0UERu6mZWLVtMUuJUotuq7Bd+V0eQeNJ2KOBMaD2xXVxbf2kZUZ5deGe/Zfq4/Doq6lviuIoTKD8OpXUmpXu03ry42egovBzQjEGfXUSPnsyP+9Cs+zyO67hfaIGi3FQ2r1rG4qREpka3RWVe9N24brd6AP+6YBmC2re1vHxVElqHhel1Zz6ip7ItE/8wz2cX5ZK6eRXLFieRODWatqpeLLJbV9m+jWKr+ggIoXUz23IDXHeUD8M96TRqEav/+1/++9/VLBrVEUXQUOb/dwtH8vNZ/YwKr5Hf2kxjQen2cQSqoki+XNV022Gbmztdg8WVy9d4/ozBy/tFpPMnxTuZFKIiIvEERWkzecQn2iS6jkKrzWTliBB8gvoQM2EqcXFj6R/oILQOJzTp6fD7p47thdZweTkDPTsTt09a+F2+jhrE99BUJecndkJLMTsnhaCKSOREURozH/Eh2ii6jkKrJXPlCEJ8gugTM4GpcXGM7R9oFdrSrWNorv4HK61/IWBBLZ/PnUJruJxMlCqAN34pRZu5khEhPgT1iWHC1DjixvYnUAitxSg1/i2E1s3Iyw1w7SE+fq4fffv0oY/50yOkGU28ggjvN5Klx4rYO60DyrBZpFsGQdIV9sJeqEJi2a3RVDHdzR2tpeLK5esotGg5PCsMZac3eHdUa1qO2mCeRrYf0Rqn1FQ9STxlHrHqTjK/h6f9iLaKQuuqjlpC2aCrlfMTe6EF7eFZhCk78ca7o2jdchQbzNPIdlPHxlsKKnomnjLfkzVfbJlHtNoD7xKqeozZlj8hsNB1kU8S2sPSU8fmckzZdBz7MBx1RCIWt0R7jHnhavt7tOpuzLWZqTL5WTgfHis2Tk+repblNz1rIEa0FrPU9LdrodXd4WpODtmZ63itjZInZu3mfE4u1++ap0hcpdd0j2q5PtkAt2ubw9SxNAjbFUsHRRCj1uQYp481lzbyaoiasPf2G7ermm5XfT3dkONrvUdrvk+qy1xEb2UjGjVpx6Q/7pl77CC0e6fTURXOnCPSH8TquZkST6S30r1C66KOemqKOt1sOT9xFFp0mSzqraRRoya0m/QHVk+xvUer2cv0jirC5xwxxqL+Zgrxkd4oLQJZvJPJIQravbSeXMmVSi6wdW4snx3eLZ/P/KyGKmgc2woN6LRa473V/LXD8VFHknDkHmivsH1mL/w8FPZCq2iMX9/3+e2qFjQ5fB3TBuWjszik1bB3ekdU4XMwufVNUuIj8VYKoa0tp3UptMZ7D00clwxSED7vmLHNrtJrq2O1Va9sgNs1Sk/Wp3/DO2K+8X6QMclwi5TZ/QlQKPAJCMRX5Un7oUtJtzw8W9V0u/rr54Yc35IfXsav5Rh+trxEwnCFlUP8TE9bWmcJ7rBuhA/Bk3aaAGjP8PmzQah929MjIpTQqGnEDg6g/6c5xr/D1Z1dSG/vviy2u7el4+zC3nj3XYxxt+4sC3t703fxOevf7hry/s1g7zBmHZamjuXrqJ+WqNutlvMTSn7gZb+WjClzFK6sHIKf8Wlzq6NwZ90IfIInmTuq5cznzxKk9qV9jwhCQ6OYFjuYgP6fkmMccxi4vj2OSH8PFD4BtPT2JPBvs9mZX+oiH+hOLSHKrwlK3xY0/9tCMqXJlaIDJPbzp4nChxZ+fnQZlcxHI1sSkXDc2B7dmSR6+Q9m2ntPEujlSwtfFYqWA5i357ZRqLVnPufZIDW+7XsQERpK1LRYBgf051NTY+u28Rpg61wKbQPsc7V2STbAK1hzSd5pDqamkZGdT1nYl2WuanpZSfXvlzv43t/rYq6d2EdqxkXuVtut7Jqo4/6ePax7qsdPoPjaCfalZnCxHEfR373M8X2pHDxzHfPEitEErvJpbp5l/540TuZZrhKlv+EpICc9jf2nb9g9IGlvUwOFFzJITTvG5SIH5y2+xol9qWRcvGv3BLJ9frFVEwSE0LqZcnUFuJubWW+LE3zrrelqtOHCT2oUt6jMBQEhtC4AVTZZBHhliVXueMG3crwe1qOFnzyslq+b/RZC62a7iAB3M1CH4gRfByBi0ykB4SdOsYidtURACK2bwYsAdzNQh+IEXwcgYtMpAeEnTrGInbVEwCq0kmOKj2AgfED4gPAB4QPCB9zsA5LAS1DFP/cQECzdw7G8UgTf8siI/bYEhJ/Y0hC/a5uAdURb2w1pKPWLAK9eSwq+1cu3oZQu/KShWLJh9EMIrZvtKALczUAdihN8HYCITacEhJ84xSJ21hIBIbRuBi8C3M1AHYoTfB2AiE2nBISfOMUidtYSASG0bgYvAtzNQB2KE3wdgIhNpwSEnzjFInbWEgE3Ca2GO1ezOHv+KoW2y3bWUqdqs9qKBLi28BrZmee5+qCwtHe4mpVJdp60fLyTf67SnWSpL7sqwrdyfdFTeCWLK4XO1xGtXFni6LpC4EH9RF94hawrhdZ3VteV/oh21G8CFRTaIk6vf5snQ9rwzBeXbJzQwF+7Enku1BcPhQqlRyNUbQYyN+Wvh/bdmnIBbri5k/nPdcVPpUSt8qCRsi0D5/zBTcsrSu9u5vUgP3x9fPAxf3xb/J1PrS+015H7fSx9ApU0USjxaKwmKHoeKdY1MF2l129nlVovx1ezawZdm/vRqvskttywQLXps+E2O6b1INCvBZHzDpsSSncwvpUHbSb+LvM+WTDkH+bbzzdzwrLAg02x4mfdIyDnJ5T+wsSO7Rn/s+3biKU+lLJjfCs82kzkd5tXDte93okW1TcCLoXWkH+Q5NFd8W/bieCmSvp+kmUjtFrSl03mg7WHySs1oLuxi3cj1CjCP+SY06FWfcNT+fbKBbg2fRmTP1hHxg0NaK/x27RwVB7mxcGlqvK/YohXGFO+P0R6errxk3E0m3wzS332cgb5NGdQ0gFu6Q3cO/c1o9spCJ6wg7vSIm8u0ivfm7qXQ46vcZk8VXs6BXnR5+NMGz819UOfu4yBvl3o2klB4Ljt5s7dIyd1O2m5xbKd1R56n67qPnx8Xox8ZUHVkUQ5PzEtk6dm+DrLgnhljb6Xk8r2tFzkvaHsePFLEKgIAZdCW/rHBwybtIojN3YyOVjlILSOVeg4Ni8chf9rZUuVOR7SwLdlA9yh78bFmBUqhqzON6VIQtu0JwtOO7tK0XHmo0hUnWeQqrEUpONkYgTKVm+yo8RVuiVP/f6W42tajzaGhPhw1F3jOWS39JGW9NmP4/fUIhY8rS4TWkMB6euT+TbjjnEWxlBwmPUrtnEuby9L3xrFqKlrKTn1PYtj/06goh1D3k1i0SdrOVRgHjEXZbJl8du8MuJ5YsbNYtW+G2XT+fcy+XHhZF58/nlGv5XIplNiOFxT3ifnJ+ULrYGC9PUkf5vBHcm8hgIOr1/BtvN3OLs5kQkxw3lxyqf8ftnGsYSNa8qk9boel0Jr7Z0mxbXQ6rJZHu1Ds0HLufCQXvjLBrgVpulH6c5JBCtaM+E38zyVVWi1GO6b+SxiQ0wzPJ9faxy9Wooq+ek1/JX9WXKh0EV6wzCIHF/Lwu+bTi9hgFcQE361Eba72xkfHMiLm3JZ/YyN0OpOMr+HJz0XnDYKpPHix/Mx+vUNJWpSAvMS1lGUupTxz3XDzyOAyJGvM3b8R/wqzfeXHuefUS1oHTWN5eu+ZeXcoXT0fYyZu6X5hQK2jWuHX8+JJK/bwFeLpjDly5NlImwxoPiuFgJyflK+0Oo4Ob8Hnj0XYLzWNfqGmq79+hHadwyzF8QzsmtTPJ+Yz1Gj1gobV4vxGmChVRdaw01SkuOZOW0iMZHBBPeLZWOWdcjVAJHJd0k2wG2zGm7y3UutUXSZzl7LPFXB1zyrakyTJo1p1FiBb3AkIz/cykUpqA2XSR6oosWYrXb3EjV7ptJB2Y25Gbny6UedjZJtG1Q/fsvxtQjt5uI8Vj/rS/OY9dwyXrAYuP71UPw7xrKr+Db/dSW0CgWhU1O4Y4PE2dRxwXcv0rLlKDaYKgEK+fHVQPxiNoD2MLPCPBnwrwv3TWHbFCt+VhMBOT+pnNAqaTE4mdPm27nFOyfRThVJ0lmdsHE12a4hFus+oZ0xmdeHdKNl0zYMeGcbVxvGAKrSNpcNcGtpeq5sfIlgdRfe2pFv8+BYKbev5ZFfeJeCvLPsXP4SoWovei86DfqLLH1SRcC47XZCq02Lo7OqG3PTc+TTHyahLYGCzS8T0GwQn13Ugz6Tj/s0o/u84+iogNCqI0g8aX9hcr/Qatg7vSOKdk8Tl5hIovnzdnQblE8kAkXsmhaKyv8Jxn7yE6duP6QBYfX5mv0hG4clG4nxcnaP1tmItmy2Q+qB/tIyojy78M5+6epX2LhmrVp/a6u60Nr1Xc/lNSMI9GjNG7/c/6CB3aENdEM2wI19NnD7z1lE+rYkeskxFw9d5PO/oV4oo5YBt1n9jAqvkd9iMyFK6fZxBKqiSL6c7yL9vrnoemkBOb7WEa00+ijeyaQQFRGJJyhKm8kjPtEm0a2I0Href5/8fqEtZcebgSiCBjExbiYzZ1o+7zDnq0Mmtrpr7Fk+mcFdfFD49yT2x8tidFtDXifnJ5Ub0doLreHycgZ62jzAKGxcQxat39W4WWilgddSBiiURH+eV7/JPGDrZQNcugZOX8zfW/rT98NULM/TlF9VAWuGeaF66ktAw95pHVCGzSLd+iyGnsyFvVCFxLJb4yq9/FrqU4ocXzuhRcvhWWEoO73Bu6Na03LUBvM0cgVGtM6E9rD01HEvFtn8qdWROY+jCnV86MoJTe01tk7oYrTdYavtnBwndrmNgJyfuFVoLS0WNraQEN9OCLgWWt0drubkkJ25jtfaKHli1m7O5+Ry/a40JZfFuoQkfjh12/SQh/Y6KfGRNFWG8+ER+6k3J3U3yF1yAa49v4phbdV0fGkVh7Kyyc6WPjnk3pDGqAby0n5gxxkzS0q4uHUaEU19iF6eY2RVvCuWDoogRq3JMU4fay5t5NUQNWHv7Tduu0pvCMDl+NoLLegyF9Fb2YhGTdox6Q/LDMuDCa0ucyGRqiDGbSvEoNOiNYDmYDxhqmBGr8nC8heZuoLznMi5C5oz/PbzCQqMM8bFZMzpjjp83kP7Z2817XtyfmISWhX/t/S0OQazycnNo1DveurYbkQrbFzTZq239bkUWs2uKbRr4rg2n4LwecfAcJ0tsT1orlDgHdCGQB8FTXy68sKKI3bTm/WWzgM0vPwAN3BlxSDUjRxZ/j8UPT8CdJxbMYTWSgXNJJa+Spqo2hI18ycuWq5ZDLdImd2fAIUCn4BAfFWetB+6lHTLXLKr9AfoT13LUj5fKPnhZfxajin70zLDFVYO8cMzIsH8lKjUmzusG+FD8KSdpq7pzrKwtzd9F58zTuvqzi6kt3dfFltHrmYCulMsifKjidKXFs3/xsJMySiFHFoyjI5eSvzahRLWpS2+ngH8Y8V5KNnNO2HeNG3VmdCOLfHy686ULVfF1HENOZScn0gvrBgX2IRGtmtwe4Qx63AJZxf2xrvvYozmd/ANqemGvH8z2Fs6VitsXEO2bAjVuBTainRScyuLI2l72HPwNNfuNYx7gRXpt7NjZAPcWQaHfbrCS5zYv4c9+46SW+B8nrEk7zQHU9PIyM7H2RGu0h2qrFebVeVbpc5qbnJ2/x7STubZPZCmu3OBo2l/sufAcS7ctrGIvpBLx/axJ+0Yl6QZIPGvxgjUmJ8IG9eYTetzRW4R2voMwN1tr7EAd3fD60l5gm89MVQtN1P4SS0bQFRvR0AIrR2Oqm+IAK86Q7kSBF85OiLNQkD4iYWE+K4LBITQutkKIsDdDNShOMHXAYjYdEpA+IlTLGJnLRGwCq3kmOIjGAgfED4gfED4gPABN/uAJPASVPHPPQQES/dwLK8Uwbc8MmK/LQHhJ7Y0xO/aJmAd0dZ2QxpK/SLAq9eSgm/18m0opQs/aSiWbBj9EELrZjuKAHczUIfiBF8HIGLTKQHhJ06xiJ21REAIrZvBiwB3M1CH4gRfByBi0ykB4SdOsYidtURACK2bwYsAdzNQh+IEXwcgYtMpAeEnTrGInbVEQAitm8FXJMA1d66SdfY8Vwst71asZCO0d7ialUl23l3nC4m7Sq9kdXXp8IrwrUvtFW2pHQK15if6Qq5kXaHQ+iIwLdnfTiYqNIg2Ib2ZvefhXau7djyhbtQqL7TaIyRE+uPr44OP7cfXj/Zv7agbPahjrZALcMNfu0h8LhRfDwUqpQeNVG0YODeFvyxvrby7mdeD/Ox4+7b4O59a37urI/f7WPoEKmmiUOLRWE1Q9DxSrAW4Sq9jsB6gOc75aslIiMTf18FPzT7r12kKv5c+QGUiS70l4NxPzN3R/MHUR6Q488XXz5+A4DAGvLKA7RdtXp/5gD0v3TGeVh5tmGhxuLtbeLWlF73e/5Vj6btJv2xV4AesQWSrjwTkhRYtN88dISM9nXTLZ88SnvFX03vR2frY32pvs1yAa9OXMfmDtRzOK8Wgu8GudyNQK8L58Jh5ZJv/FUO8wpjy/SEr74yj2eSbk/XZyxnk05xBSQe4pTdw79zXjG6nIHjCDu5Ki1K7SK/2ztdABeXx1dzI5EiG5KeH2Bz7KMqgl/nqgMlvM05dwbJ2Tw00UVRRBwiU5yfGphkXflfy96Q00g8fYNfmfzI6VI36icSqr650L4fU7WnkFpsg6M58RKT6ceYcqbqI1wGsogkPSMCF0DqWauDqqmfw8xvG19ctwzDHYx7ubdkAd0CjOzaPcIU/r/1sHm5JQtv0/kXHTdl0nPkoElXnGaRaZ590nEyMQNnqTXaUuEp3qLyebrrma+bQcTp7rZxMnTUUnGLLsnjGjx7OsJgxzEzeySXzMYaCw6xfsY1zeXtZ+tYoRk1da8p0L5MfF07mxeefZ/RbiWw6ZVkqCe5lbWdp3BhipLQJc/hq33XnU/n1lHV9brasnxiFVs3wdWWXX/n/fQa1ciDLr5Sd14oyt7D47VcY8XwM42atYt8Nm1s9htscWZvAxNHDGf7yFD7adMK4vrShIJ31yd+ScceA5syPfDL9Kdoq2jJ4RhIff/47l4wD2iIytyzm7VdG8HzMOGat2odt0fWZu2i7cwKVE1rtMeZ1V9Fu4u8P7TJ4zjGW7d+bgosAACAASURBVJUN8LLDjMviZS+PxqfZIJZfME8nWYVWi6Es3s25itgQ0wzP59caR6+Wokp+eg1/ZX+WXCh0kd4wpqxc8y1PaDXsnh5B96GxLPhsJV8kjSPS35OIhKNGcdSdnE8Pz8fo1zeUqEkJzEtYBxSwbVw7/HpOJHndBr5aNIUpX540Hq858S8GtfCiw+DJJCxaQNzIx/BVP8Jbv9ziPtNZjCW+a4yArJ/cJ7Q6Mhf2Quk3mk2FpiaWHv8nUS1aEzVtOeu+XcncoR3xfWwmu6WpI+5xYG5PvP3CefH9hSTNGsuADr1JOKHD5Eemi+WSg58x8fkImns0J+L513lj5jec1ZVy/J9RtGgdxbTl6/h25VyGdvTlsZm77eK6xkCJimqEQKWE9s7WN2irimD+CZsruxppZv2pRDbAMXAzJZn4mdOYGBNJcHA/YjdmYR14FXzNs6rGNGnSmEaNFfgGRzLyw60Ybx0ZLpM8UEWLMVvtlmjT7JlKB2U35mbkyqcfbRg2k+cr+Ul5QistJmorgRpSZ3RCPTCZywZMJ0iFgtCpKdyxuJv2MLPCPBnwrwsO68jeZuMLzWn65BLOW7Aa8vjfMH/UA5aQ0zCuaSwU6uW3rJ8YhVbBoy/MIzFxHu++MZD2vu0YuuKkObYK+O7FlrQctYFbFpcp/JFXA/2I2XAHw1/fMNzPjyGrrlgvqgz3CrmrM/uRZ9mslO5EAt3VPZh/0uwoBd/xYsuWjNpQdkFW+OOrBPrFsMHqePUSuWi0DIGKC63+Ip8/5Y3vkJVctTifTMEPa5JsgFuFdgaTXx9Ct5ZNaTPgHbZdtZyZS7l9LY/8wrsU5J1l5/KXCFV70XvRadBfZOmTKgLGbbcTWm1aHJ1V3ZibniOfLoTW6JJFualsXrWMxUmJTI1ui6rXIuMi38aRiDqCRMsJ0XQ0u6aFovJ/grGf/MSp22Y7af7k7RAVfT4+byPABq5/+RQq35f4oeRh9f6602/ZODQKbROCeg9nxJDetPNS0mnM91yxhKFmL9M7Kmj3dByJiYnmz9tEt1HyROIpNLum0E49gH9ZZqJsum07opV2OwqtZu90Oira8XScpdxEEt+Opo3yCRJPWa7abAoUPxsEgQoLrebwLB5VBvHmL8a5kwbR+erohGyAO1Sov7yGEYEetH7jF4cUy2Y+/xvqhTJqGXCb1c+o8Br5rd20fen2cQSqoki+nO8ivWFcHbnmW96IVkvmyhGE+ATRJ2YCU+PiGNs/0F5obUYiFgugu8ae5ZMZ3MUHhX9PYn+8jL50K2Oaq4j+Is86opGOv7duOGrPkXxrfhDGWob4UeMEZP3EYeq4MC2e7p4tGL7mmsmepTt4M1BB0KCJxM2cyUzL5505fHXoDqVbx9Bc/Q9WWp/2L+ueK6Et3fEmgYogBk2MKyt35kzemfMVh8SItgxkA/tVQaG9zQ+vtELZbS7i4Tl5D5ANcMes0ih1gAJl9OeOKebtAtYM80L11JeAhr3TOqAMm0W69QFGvfHekioklt0aV+nlVFHPdrvmW47QalKZ0UlFz8RT5geWdJyc3wNP2xGtM6G18NFeY+uELkb+h+8d4v2uSh559wBWU6DjREJ3VI+8y4GynZbc4ruGCcj6iYPQShexm18ORNljPsa7YrojzHlcRWj8IRv7lnVAe+BdQlWPMTvjfkO7ElrdkTk8rgol/tD9ectqEL8aGoEKCa0+eylRXs146otLNlNlDQ2Fe/pTfoDryVqXQNIPp7htnCHScj0lnsimSsI/PCLdQCQv7Qd2nLltFoISLm6dRkRTH6KX5xgbV7wrlg6KIEatyTFOH2subeTVEDVh7+03brtKd08Pa7eU8vla2lWe0ErTgSrC5xwxstLfTCE+0hulnNBqzvDbzycoME4pFpMxpzvq8Hkc05WSNvMRFK2eZcVJ01PIRWdWMjLIk+7zjjg9OVtaJ75rhoCsn9wntFDy51Q6KtozJUWajtBwMD4MVfBo1mRZ7gPoKDh/gpy7BijeyeQQBe1eWk+u9AcDJRfYOjeWz47bPwwl9dRx6hjNQeLDVASPXkNZ0QWcP5GDVLT41zAJVEBotRyZ8zjq4DfZJqY2XHpB+QFu4PqWWHo0V6DwDqBNoA+KJj50fWEFR4znah3nVgyhtVJBs4A2BPoqaaJqS9TMn7houXVjuEXK7P4EKBT4BATiq/Kk/dClpFv+4sRVusvW1/0DyudrabuerH/2o2nXeIeRpZYznz9LkNqX9j0iCA2NYlrsYAL6f2p8eEl3diG9vfuy2PpyEOkEupt3wrxp2qozoR1b4uXXnSlbrhovNg2300j6RzBqDy+at2qBl8KHsFdWcUpMG1sMUavfsn5S8iOv+Pky+jsbY+lO8FFkU9q8ud3U7sJDLBnWES+lH+1Cw+jS1hfPgH+w4rx01WXg+vY4Iv09UPgE0NLbk8C/zWZnvgFHP9KdSSLSuzcLz1qCGAoPLWFYRy+Ufu0IDetCW19PAv6xAmPRtUpNVF5dBCogtNVVdcMsVzbApS5rbpF1JI09ew5y+to9u3t8UrKu8BIn9u9hz76j5BY4n14qyTvNwdQ0MrLznY6eXKXXZ/Iu+broXPG1E+xLzeBiRYcP+kIuHdvHnrRjXLpreVrGUomG/KwMUvfs4/jlu2K2x4KlDnxX1U9MXdBx58JR0v7cw4HjF7jtEI76u5c5vi+Vg2euYxn3VrjrujtcOJrGn3sOcPzCbadxXOGyxIF1noAQWjebyD0B7uZGNaDiBN8GZMxq7Irwk2qEK4quNAEhtJVGJp9BBLg8n6qmCr5VJfhw5Bd+8nDYub70Ugitmy0lAtzNQB2KE3wdgIhNpwSEnzjFInbWEgGr0EqOKT6CgfAB4QPCB4QPCB9wsw9IAi9BFf/cQ0CwdA/H8koRfMsjI/bbEhB+YktD/K5tAtYRbW03pKHULwK8ei0p+FYv34ZSuvCThmLJhtEPIbRutqMIcDcDdShO8HUAIjadEhB+4hSL2FlLBITQuhm8CHA3A3UoTvB1ACI2nRIQfuIUi9hZSwSE0LoZvAhwNwN1KE7wdQAiNp0SEH7iFIvYWUsEKiy0pbcuknnmHFfuOLwepZYaXlerrUiAa+5cJevsea4Wlr2WrVL90d7halYm2Xl3ze9FdsjtKt3h8Pq0WRG+9ak/oq3VQ6AifqIrvMr5M5lcKrCuCA0Uc3r9LMa++haLfsmlRJfD+vcWstO8IHz1tPZBSzVwbcssXp39M3niPckPCrFG8rkUWumdrouGdsHH05eAAB+UypZEvrWR3AfUiBrpVS1WIhfghr92kfhcKL4eClRKDxqp2jBwbgrW1bbubub1ID98fXzwMX98W/ydT63v39WR+30sfQKVNFEo8WisJih6HinWAlyl1yIYN1XtnK+WjIRI/H3LuFn4Sd9+nabwu/Tyd/HvoSHg3E/M3ddd4PvYPgQqPVCpFTRu4kPo2A3G9WgNt75maHA07y2N5x8hLekS+ShtQuPY+4D+o0mZTqi/Lz4+vvj5t6J9j38wMXkP1x3f5vlAljGvQNVzAafF+fiBCNZUJhdCqyX9g0dRdR7Pz3mSJfX89cfbhCkDeWObzQu5a6q19aAeuQDXpi9j8gdrOZxXikF3g13vRqBWhPPhMXOU5H/FEK8wpnx/iPT0dOMn42g2+eZkffZyBvk0Z1DSAW7pDdw79zWj2ykInrADaZVgV+n1AJ/LJpbHV3MjkyMZErNDbI59FGXQy3x1wMzw1BXuuSxZHNCQCJTnJ9KCAH+tG4l/00je//MGWgwUXdjD11/v4ro0Kiy9wP49mcZ4MhSc48/tOzlx88FVrGRjDF7Kv5OUls6htF/5JmEoHZXe9P/nGeezUZUyghDaSuGqxYNdCG0xG2Oaon7ufxRYGnnve170a8qwNdY9lhTxXcm/SdYdm0e4wp/XfjZfLktC27QnC5xenpqXf+s8g1TrTJeOk4kRKFu9yY4SV+kNwzzln0At/StnmTxpzZWCU2xZFs/40cMZFjOGmck7uWRmaSg4zPoV2ziXt5elb41i1NS1pgLvZfLjwsm8+PzzjH4rkU2nLEslwb2s7SyNG0OMlDZhDl/tu+6Gk6elH+K7KgTK9xMth98PQ9nlHfY7uwtmKODUlmXEjx/N8GExjJmZzE6Lk5gbVBm7G4VWPZx11iu9Ar6N8UXRayGZenmfxHCLA2uS2XSszOe4e4xNyd9wMF+6KnAitPey2L40jjExz/P86AnM+Wof1x/8OqEqJhB5bQi4EFo9l1Y9g79XNyb9eIFSfT575/bFP2QMW26KmwI2HK0/yw9w6yHmHzqyl0fj02wQyy+Y55GsQqvFcB/eIjbENMPz+bXGq21LaSU/vYa/sj9LLhS6SHfLXJWl2lr7ds23PKHVsHt6BN2HxrLgs5V8kTSOSH9PIhKOGsXRtGD3Y/TrG0rUpATmJawDCtg2rh1+PSeSvG4DXy2awpQvTxqP15z4F4NaeNFh8GQSFi0gbuRj+Kof4a1fbt23IlOtwXqIKy7fTwzkbxpNS49WDF6Yyg0HEdLsnk5E96HELviMlV8kMS7SH8+IBI6aj6us3e8X2hK2jW2JMjKJszp5n0SbzqwwT/r9M9u6MpQ+6xP6ej7KB8ZF5x2EVnOCfw1qgVeHwUxOWMSCuJE85qvmkbd+4dZ955OH2DlqoesuhFYaBtxkz8KhdPTyoV3nNvg9Opa1mWLauDxblR/gUg4DN1OSiZ85jYkxkQQH9yN2YxbWAWrB1zyrakyTJo1p1FiBb3AkIz/cykXpyttwmeSBKlqM2WpcuNxSv2bPVDoouzE3I1c+3XKmsGSsp9/yfKVOlSe0EkPbs42G1BmdUA9M5rIBjEKrUBA6NQXrssvaw8YT3YB/XbCe6EzYbrPxheY0fXIJ5y0nakMe/xvmj3rAEuP6tvUUb4Nptqyf6C/z4+Qe+DZugl/Y88xaexTjANHYe4PdhZImdQad1ANJlpyEytvdXmgN3DnyKYNbKHlsdrppaTwZn6ys0N7e+ALNmz7JkjKnJO9/w/BXD2BJTsO40K6vDupSaA13Mvjyte4EhT7DuNf6E+TVkl5TNpJtVYf62vXqabdsgFuFdgaTXx9Ct5ZNaTPgHbZdtQRBKbev5ZFfeJeCvLPsXP4SoWovei86DfqLLH1SRcC47XZCq02Lo7OqG3PTc+TThdAaDV6Um8rmVctYnJTI1Oi2qHotQnrWzCi06ggST1qUUzq8iF3TQlH5P8HYT37i1G2znTR/8naIij4fn7cRYAPXv3wKle9L/FDpxUmrxxcf5lLl41AioyVv/1e882wo3o1VdBj1X85ZppKLckndvIpli5NInBpNW1UvFklO8gB2Nwpt42a06dyFziEBNFX40HX0FxyzTiVDeT5ZOaHV8OfbIaj6fGy3gLzh+pc8pfLlJeGUtRoO8kJruMa6mFb4PZlEuvS0DQZuH/iIgf5e9Ew8Lu5HOTGd6wAvy6S/vIYRgR60fuOXsp12v/L531AvlFHLjFfTq59R4TXyW2zu2FC6fRyBqiiSL+cjn247mrOrpF5tuOZb3ohWS+bKEYT4BNEnZgJT4+IY2z/QXmg9ndwf111jz/LJDO7ig8K/J7E/XkZfupUxzVVEf5FnN/q5t244as+RfCsmfGrdp1z7iaWJJZxbOYzWHqYHPLWZKxkR4kNQnxgmTI0jbmx/Ai1C+wB2Nwqtoh/vbd7G9t/3cvTSXZuLM3mfrJzQlrJ1THNU0V/Y/6nPvXUMV3syUjilxeC18i0vtPc2ENNUzdA1tn9EVszmF31R/d9/ELdp77dZxQNcekz4IksHKFBGf35/QcY9BawZ5oXqqS8BDXundUAZNot0y5U3ejIX9kIVEstujav0cqqoZ7td8y1HaDWpzOikomfiKfMFovn+lu2I1pnQWvhor7F1Qhcj/8P3DvF+VyWPvHvANP1nPEbHiYTuqB55lwNW+1gyi++aJuDaT2xaVPg/nlOpePqr/894O0HVM5FT5okN071784hWW3m7208d29Qp/XThk+iO8WG4mgirz4JWeoBS7ewerZZD73dF6eB/uhMJdFc9wrvCKR3g1+ymvNBKUyXtFbR7dROXzScP/Y0dvPWIko7T95bdW6zZNtfp2soPcD1Z6xJI+uEUt41BrOV6SjyRTZWEf3jEOFuQl/YDO87cNgtBCRe3TiOiqQ/Ry3OMfS7eFUsHRRCj1uQYp481lzbyaoiasPf2G7ddpddpcBVsXPl8LQWUJ7R7md5RRficI0ZW+pspxEd6o5QTWs0Zfvv5BAXGGeNiMuZ0Rx0+j2O6UtJmPoKi1bOsOGmaXyg6s5KRQZ50n3fERnwtbRLfNU2gXD8x3GBL4nus2nfNdAvGUEDGJ0/RwrM3C08Xs3d6R1Thczgi/SGA/iYp8ZF4K81CS+XtLi+08j4J+awd7oM6MoEj90B7ZTsze/nhoXAmtFCaNpNHFK14dsVJ06xX0RlWjgzCs/s8joiLv5p2Qbv65IUWPde2xtEnQIG6RQe6hnUi0MuToEFz+EMMZ+1AWjbKDXAMXN8SS4/mChTeAbQJ9EHRxIeuL6zgiPFcrePciiG0VipoFtCGQF8lTVRtiZr5Excttw0Nt0iZ3Z8AhQKfgEB8VZ60H7qUdMtcsqt0SyPr8Xf5fC2d0pP1z3407RrvMLLUcubzZwlS+9K+RwShoVFMix1MQP9PjQ8v6c4upLd3XxZbXw4ClOzmnTBvmrbqTGjHlnj5dWfKlqvGqT/pRS5J/whG7eFF81Yt8FL4EPbKKk6JaWOLIWr1u3w/KWLfR9EEeXrg2bw1gb4qFH6P89pXp5BurWvPfM6zQWp82/cgIjSUqGmxDA7oz6fmh4kqa/eSH1/Bz3c03zn1C3mflAAWHUikn38TFD4t8PPrwqjkjxjZMoKE49JJQcfZhb3x7rvY+JwBhtukJf2DYLUHXs1b0cJLgU/YK6wSTlmrvihV7kJoze0r/Yvz6an8+ec+jubeFlfsMmYrP8DNmTS3yDqSxp49Bzl97Z7dPT7pCF3hJU7s38OefUfJLXB+GVqSd5qDqWlkZOc7tYWrdJnm1/kkl3xd9KD42gn2pWZw8W4F71nrC7l0bB970o5x6a7loTVLJRryszJI3bOP45dt771Z0sV3bRFw5SfWODtwkqtFDr5QfI0T+1LJuHj3vvg09ce9dnflk7qCHNLT9nP6RsVeT6XJzyIjdQ/7jl/mPpetLYM85PVWTGgfckiV6b6rAK9MWeLY+wkIvvczEXvuJyD85H4mYk/tERBC62b2IsDdDNShOMHXAYjYdEpA+IlTLGJnLREQQutm8CLA3QzUoTjB1wGI2HRKQPiJUyxiZy0RsAqt5JjiIxgIHxA+IHxA+IDwATf7gCTwElTxzz0EBEv3cCyvFMG3PDJivy0B4Se2NMTv2iZgHdHWdkMaSv0iwKvXkoJv9fJtKKULP2kolmwY/RBC62Y7igB3M1CH4gRfByBi0ykB4SdOsYidtURACK2bwYsAdzNQh+IEXwcgYtMpAeEnTrGInbVEQAitm8GLAHczUIfiBF8HIGLTKQHhJ06xiJ21RKCCQqul8Fo2meevUmh5HWAtNbiuV1uRANfcuUrW2fNcLQ+m9g5XszLJzrvrfIWkqqbXdYgy7asIX5ns8kmGa2yZ9Sqzf7ZflUc+k0itiwSq1U/qYodFm+o0ARdCa+Dmzvk819UPlVKNyqMRyrYDmfPHzXJeTVan+1ojjZMLcMNfu0h8LhRfDwUqpQeNVG0YODeFv6xvgNOR+30sfQKVNFEo8WisJih6HinWA6qaXiMIqrWS8vje+3k87YOG8p+Ljq9JhNubx9Kxwzi2GJd6lGme7iTze3jSc8Fp0wWOIZ/D337O5hOWl0nL5BVJdYpAeX5i10jDLb4b04kWgT35IK1irze0yy82BIEKEnAhtFrSl03mg3UZ3NCA9tpvTAtX4dE5jn3OX8NbwWob7mFyAa5NX8bkD9ZyOK8Ug+4Gu96NQK0I58NjpmkCffZyBvk0Z1DSAW7pDdw79zWj2ykInrADSSOqmt4QqJfH1/DXWob7qem/JMdmvU9pUaR81o30w2/4NzYXNOWQcBRa47JoaocF3svJK3bXKQLl+YltIw3X/sM//DrStYsnQeN3YLMWu+1h4rcgUGUCLoTWsXzTGp4K1RBW5zumiW2JQEUC3EJKJ60tqfDntZ+lq2nz8m6dZ5CqsR7BycQIlK3eZEdJVdMtZdbv7/L5FvDd6Bao+izmvM2g1nDrG4b7teCFjbdNHTcUcGrLMuLHj2b4sBjGzExm5yUzcFuhLTnF94tj+XuggnZD3iVp0SesPVRghldE5pbFvP3KCJ6PGcesVfu4Yb6lYig4zPoV2ziXt5elb41i1NS19Rt4PW19+X5i6ZCeC8ui8O27iL3/fhrvgFf44Y4lDcqzo6HgFFuWxTN+9HCGxYxhZvJOLO6DoYDD61ew7Vwee5e+xahRU1mbqUM2j1Sl/gb7/vMeY2JG8ErcF6TlZfPrl99w4JY01WXg1oE1JG86Zlr6ztjEuxzblMw3B00nYdnyH7RNZSjELzcQqKTQlrJzUjCK1hP4Tcy0OMXvOsAt2XRkL4/Gp9kgll+QlKGIDTHN8Hx+rXH0ajmq5KfX8Ff2Z8mFwiqm26iPpfB6+C3H9+5Pr9NKFUnSWcuDBAb+WjMMv8BX+bHQ1FnN7ulEdB9K7ILPWPlFEuMi/fGMSOColMVWaItSWTr+Obr5eRAQOZLXx47no19vAqUc/2cULVpHMW35Or5dOZehHX15bOZuo91MC4U/Rr++oURNSmBewrp6SLn+N1nOT4y902eyqLc3A/6Vg+7mGp738ydm/S3rLTHndtSwe3oE3YfGsuCzlXyRNI5If08iEo6abjWY/eexfn0JjZpEwrwE1p0qls9DMftn96Cpz+OMen8Bs8f2oV3nUEK8HuODDGnaUEv6rDA8+/2TbEsI67P4pK8nj36QIa0eL1/+A7Wp/tu/rvWgUkJruPkdL7VW0GX6Xpwur1jXelcL7ZEPcAM3U5KJnzmNiTGRBAf3I3ZjFsbxlOEyyQNVtBiz1bQgtbntmj1T6aDsxtyM3KqlG5WkFoC4uUpZvvd+ZUKQkojEk+Z7rDf5eqgvbcb9YjMaMFhPplLTNKkz6KQeSPJlg73QSonOpo4LvuPFli0ZtaHspFz446sE+sWw4Y5UxHx6KBSETk3BZoDkZgqiOFcEZP1EuqY6Po/u3oP47JKkXrfZMKo5Ps+s5rr5eYly7WiwPlBhFLnUGZ1QD0xGch/ThZoCRehUUmyNL5enYBMv+DclaqnllkcpZ1c8TUvr4u6uhFYa9Lq5Ta7givRKE6i40OqvsPGlYNRd3mJHvq1hK11ng84gH+AWoZ3B5NeH0K1lU9oMeIdtV/Wgv8jSJ1UEjNtuJ7TatDg6q7oxNz2naukPg9BSwq7Y9ii7fYh029twYzXP+gbz1u8Ol4VFuaRuXsWyxUkkTo2mraoXi6QF321HtJKXOhFazd7pdFS04+m4RBITzZ+3o2mjfILEUzqT0KojSDxpGVU3aHevs52Tj0MtB98Lxef//s1V86lMulgKaBrNCqPwmi+YyrFjUW4qm1ctY3FSIlOj26Lqtci08LrRf9RlF3o2dMrLoz34HqHqniw4XeYv+qxP6Ov5aAVHtKZKyivf5NOVa5NNs8VPNxGomNAabvPnrEh8W0az5JjDSctNDWkoxcgHuH0v9ZfXMCLQg9Zv/GK8ql79jAqvkd/ajL6gdPs4AlVRJF/Op2rpDePiyBVfzb6ZdFFKJykN11cNwafjVPbY3ObQZq5kRIgPQX1imDA1jrix/QmshNCW7niTQEUQgybGMXPmTOvnnTlfccgyovW0P3HaW11s1QQBWT8p2c3b7T3wbPsokZGRpk/3EHwaq/jbp1nGh+lMU8eOdtSSuXIEIT5B9ImZwNS4OMb2D3QQWpun1o0dlc+jSZlMsOpvfJpjmReGygmtfPn3XTxWoE01YZ+HrY4KCG0R6Yv/Tkv/vnyYWmA37fawwapIf2UD3LEAaRQ7QIEy+nPjNNTeaR1Qhs0i3fpEt57Mhb1QhcSyW6OhaumOldfPbZd8tel88KiK0Hd/4vOnfQh9Z79pat7YXQ3SVJ+qZyKnzAMI0wm1vBHtYd7vqqbXonPWJ5l1R+bwuCqU+ENWI9mBdH6CtjtEbNQAATk/ubdjPEFN+xH//Q527LB8tvLJsEBUPRcgDS6d2lGTyoxOKnomnjL/fbvp4VBPuxGtg9C6yKM7kUB3VSdmlD0BaZ4VsYxodRz7MBx1RJnPoj3GvHC16R6ti/KdCq2rPDVgn4etChdC+/+3dyZAUV1ZH6+IvUAEGrGJ2ori+OESCcRWVBIy+lmJMToqRMeY6BBNzBA3xuAuImBI4ihRU/XppymjiTExo0nGOBMtHQRXQC1EJSqlxqVUIiVKsZTd1bz6TXXTDd1tLxgaELxd1fX6vfvuuef87znvf7d+V8/5DaPprAzhzxuOceHiRS4av0WXuF3eOnpInq5w5wFezYWtSaR+V8Bd00Nez619iWiflhO2JM+kRuX+eLrLNMRuLjINH+t+/ZpJwUp6f3DYdN7QdE/b2hzynONr0cZAflI4io7BaHz6sKCu1VLTmJkVgiJsEXnGXm51MfsStfjKnRCtoZA0rQJN3I/clwzo9RLojpLYW0GX8Zu5UGUu01DK+fwiykzTvMsIFz1aS2U029G5n9zjuzfUtLMaNrYoWbH7bTrJ+rIwV++EaA8yK0RB2KI8UzxWF+8jUeuL3CXRusnzIJOZITK6TNzGVT3or+8hMVJFm7YWooWSLWPwU2pJyqsA/TV2JwxA1VZmJlo38u2nQ4zG6tzksQAijh5DwDXRStdYO1TJUw/tVSujf8pZjynRmgQ5D3CJWzvj4eN6wwAADnlJREFUCW8vQ+arplOQHzIvP3q9vpY8y/sQpDvsWxiFWibDTx2Ev8KbbqNWkeOp9FYAtHN864wzFH5M1NNtUGpTsJ8q1Z9dx0iNEv9u4USEhhI9M57h6qiaoTvDOdIG+jIo3dKDNVCwMhqVlxz/wPYMSSs0FXL/2EpGh/ggV3UltHdPOvt7o355relvRYZzaQz0HUS6cc5XfJoNAad+UrGLN9UqXtvo4O1flXt5L1hJv8UncFyPes6uG4lG6U+38AhCQ6OZGT8cddQnmEZ+H/Ifo/lu8iBx84d4wvy8UKrUqFQ9GDXrDfop64iW8iMkDw7AS+ZHoEpFz9gMUsZ1ICLplHv5v0unZqu2Vluwa6JttWY3nmFOA9xSpO4OF/Kyycw8ypkbFQ6H4qtunuFoVja5F0twNEDZ0HSLKi3x6Bbf+hhVeYP8Q1nkXilziL+tCB3F5w6TmX2am1ZzvRjucflENv/JPMKpy3cd1pOtHHHWlAh4xE+cKFx5I59DWblcMQ5h1PPjLo+h5ALHs45w9vYDDDaLocwFGEopysnm8JnbNoslLcW7k2+5z/r4e/JY5xe/64+AINr6Y1WvOxszwOulQCu/SeDbyivYQ+a1ZD+xXQzlIUCEmGZFQBCth+FvyQHuYSgaRZzAt1FgbXVCW7KfVF/OYKhKS3J+3V9+Wl0FPWEGCaL1cIW35AD3MBSNIk7g2yiwtjqhwk9aXZW2aINqidbomOIrMBA+IHxA+IDwAeEDHvYBYzPBCKr4eAYBgaVncHQmReDrDBlx3RoB4SfWaIjfzY1AbY+2uRVpLeWLAG/cmhT4Ni6+rUW68JPWUpOtww5BtB6uRxHgHgbUTpzA1w4QceoQAeEnDmERF5sJAUG0HgZeBLiHAbUTJ/C1A0ScOkRA+IlDWMTFZkJAEK2HgRcB7mFA7cQJfO0AEacOERB+4hAWcbGZEBBE62HgPRLg+ntcv1DIxZtl5peX2ynZ0HQ7cS3p1CP4OjNYusHO+ZNY+L2D1/M5yyOuP5YINKqfPAYWSzd2Mn/SQnbdrP/bqR4DtZ9YFepJtOWc+fJ9XgzuxKuf/Vq7k8kTi5oLw+sX4BKl/5pD/46BdB7+d87V/i/dwKVv44kMkuMlk9O2jRLNsKXs+80STA1Nd6F4C0lyhm/F91PpphnF/115+B3Dd3dMIaR7HDvL3Bhp/wJ2qYTjX61jR77lZdNu8ovkxwYBZ35iUlC3n9m92qN65jmm77zt4DWcEnd/mkl4kIpA7dJGtkmi5PhXrNuRb7M9prtCHe4u5C6TSG82BNwSrVRylIzxvQjo3IMuT8sZ9FHNfo3NpvFjXrDLALfoXpHN3L5q+j7bBXmfBeSaX2hcffFThvq1Z2jqEe5US1T88jnju8roMu0njBzR0HRL8S356Axf6bctjFEpiVpZZNsQlErYOk6FaswX1LZXnAFgT7QONn53llVcf7wQcOYnJi2rvibGR0G3Hhp8Ij+k0L5tVn2J1S/507NXD2RBcY1smJ5j83qhjPzQtClFfQsTRFtfpB6P+9wS7YOfFzB6+gbybu/lvS4KQbRu6s1lgJvy6ji1fCDqF9PZlaxFWUu0Bs6maFH8YTZ1W1MaOJ0cgfyZt/mpqqHpbhRvIcnO8S3lm/GBKCLTbR5Y0p0vGKMK5PWv79ZYKJVSsHM1iVPHM2Z0DJMTMtj7q64mzZpoqwr4Nj2ePwbJ6DpiLqkrPmLLsVIzSuUU7kzn/TfG8qeYOOZvOMRt86iEVHqcL9f+yC83D7Lq3VhiZ2xpIci2LjWd+wlgIlpfYpISCVP2emhvYX3OQp5V/S8rlr+C0opopdICdq5OZOr4MYyOmUxCxl4srmNCT7pL3pYk3hk/hjET/0rK9nxKJXCer4qCb9OJ/2MQsq4jmJu6go+2HKNUkrhzZDMZ209a9XLLOLk9gy+OlpiKshBt8tFTfJP8Dq+PfZ13U3ZxvtJcj678vHVVdYuwxi3R1lqh2yeIthYM5z9cBjhguPApw4KeZ0lOBefSrIm2nG0x7fD+0xZT79VSQtWuNwmQR7Hy8v0Gpts32y0ltKyjK3zLdr3FMwotqbVj8RK/bR6NKmgS/7hfY6fuwCwinhtF/PI1rP8slThtAN4RSZwwEqU10ZZnsWrqa/RTtUWtHcdbU6aSsqcYeMCpj6MJ7BjNzE+38tX6xYwK8advwgFTvdU8APsyeFAo0dOTWJq0tWUB3Eq0deUnFqKdsP0MK1/wQTNtjw2h7Z7ahaAJ27m08VUrotVxYFYEz42KZ/ma9XyWGoc2wJuIpBPmdRQVHFncH19VGBPmpZE6fwovdB9IUn6li3zlZK2aymv9VLRVaxn31hSmpuyhWNKTM7833oM/5qIlbKsv8NEg75o9aE2uuoxweQBdg4N5fuI8li96i/4BMjRvfkexcdtkV37eSuq4JZkhiNbDteUywKXrfDG2E6EzjQ9lA4XWRCtdJeMlBYGTf7DZBkuXOYPu8n4szr3UsHQTk3jY2GYQ5xLfij1M08iJSD5d8/CTivl8lD+d4v5p9SCVbObkdFmz6aF8iYyrpl3bWRbuTf/lZ2ryOxo6Lv2GCR06ELvtTq2c+/+YRJAqhm33jFy9jHCZjNAZ+7jXDPiIImsQcOkn5h7thB2V3Nw4Ev/2MXx5p2YdhHTrc0YFhBC/v5K7m6yJFpAsayWMZejImt0D5UsZGF1H+s04cqJixIZrtX4hVdynzNiAc5HPuF/tw0PH9SRamT8vpOaYfVvixoYR+CqHssaoEC78XDhJkyMgiNbDkDsPcIk730+hW/BkdpmC2o5oq6+w6kUF6rjdNkSrz57DHxT9WJxT1LD0J4FoqWJ/fDfk/ZZw0gDS7Y2M9O/Cu/+2jKeZK7v8Elk7NrA6PZXkGcPorBjACuNG7dY9WuOtDohWd3AWIbKuvDInmeRk8/f9YXSSP09ygaGGaJURJNvvOO9hPxPiXCPgPA7rho4n7KiC0h1MVLdj6JorVFNN4YeRtHtuKacMPEy0QPmlLHZsWE16ajIzhnVGMWAFRtfR7f8rXZUv8PfLli6orX7O8jWIaL37s/xM7UpKDGdT6C/vzDs/m6dCnPm5rWrirAkQEETrYZCdBrjhBEvCvOkRu4KNmzaxadNGVsSGINOMYtmmneSVlLDxVQU+476y6n3Bg91xBCmiybja0HTr1riHjW5CcU7xNeugO5RAT3kfFuTquLVhBH4hM8i02rBdX7iescF+aCJjmDZjDnOmRBH0CET74Ke3CZJpGPrOHBISEmq/f1v0/xyz9GjtHoBNCI8oyoyASz+p7dFWAZXsnR6MIiKZ/PJsEv7Hj2Em0rUnWj2F68cS7KchMmYaM+bMYUpUUC3RPvhhMu2VL7P+oRV3rvN5kmilqxlEK9T85Z8PcOnnwkuaHAFBtB6G3GmA64/x4WuDGRQZSaT5Gx7cDi8fDWGDx7HqZDkHZ3ZH3ns+OeZVyBhb2GkDUATHc0Cna2C6hw1tJnFO8bXoo89hQR8FoXN3se4VP0L/dhhz+752uE/RP5kCc0egZk7VWY/2OPN6KRmw4pfalcyGvEU8qwh9aAGNpXjLIhXrnoYlTRybDgGXfmJDtKA/Pp/e8h78ZW4sHTvEss08jGwzdKzLYnYPBf2TC8xzsgZOLwvH29yj1R+ZS6iiLwstfyGwmOomn5FojxtXHZvl1GQzcHJJGMqIOj9Ff5KlYUrbOVplPxZbjVSZpkEUYSw5WWka1nbq5xbdxLHJEHBPtIZ7XC8q4mLhVt7sJOf5+Qc4X3SJW2WOh0iaTPPHtCCXAW6js93QsbFtvT+e7jINsZuLTMPHul+/ZlKwkt4fHDadNzTdpvgWeuIeXwP5SeEoOgaj8enDgrpWi4loD84KQRG2iDxjL7e6mH2JWnzlTojWUEiaVoEm7kfuSwb0euMqk6Mk9lbQZfxmLhg7RMaPoZTz+UWUmaZ5lxEuerRmYJrv4NJP7IgWQyErBsp56ikvuk7/mQqz2rZEe5BZIQrCFuWZYrG6eB+JWl/kFoKs3Mt7wTK6/vlLLhl9q+oyPyyOZ83xA67zmddqKDRx/HhfwqDXm+Z4S7aMwU+pJSmvAvTX2J0wAFVbmS3RytqgGjSPf13Xg66Iz2M6Ie8zn2N6HS79vPmq5Ykt2S3RmuYevOz35pMRtvTkEwuaK8NdBrhNxmoufDIE34hlpvkgU5J0h30Lo1DLZPipg/BXeNNt1CpyLO9LaGi6Tfkt86Q++BoKPybq6TYotSnYT5Xqz65jpEaJf7dwIkJDiZ4Zz3B1FJ8UGedoz5E20JdB6ZYerIGCldGovOT4B7ZnSFqhCbT7x1YyOsQHuaorob170tnfG/XLa01/KzKcS2Og7yDSjRN34tNsCLj0k6rvmKjqwOTvLXMKEtfWj0DlHUHSidrhJO5tHYtfl+lmG/ScXTcSjdKfbuERhIZGMzN+OOqoTzC6jnHx0a3dc9AGtEXmp6aDrzdBQxayt+SBm3xgKFhJtMoLuX8g7YekUWgcbSk/QvLgALxkfgSqVPSMzSBlXAcikk6Z9DGcTWVAwHBmfvAiQT7+BPorkHV4gaWZd01E7dLPm61WntyC3RLtkwvN77PcZYDXU2TVzTMczcom92IJdWFfl7mh6XWSWt4vT+BL5Q3yD2WRe6WsdoWocyR0FJ87TGb2aW5ansvGmw33uHwim/9kHuHU5bsO68m5TJHS2Ah4xE8cKFl5I59DWblcMQ5fOPhUl13l1KEsjp69hWXAw3ibu3y64nMczszmtLWTGUopysnm8JnbNgskbYuVuH85l6zsk1wtt9PpkfzcVqo48ywCgmg9iyeNFeAeVrPFihP4ttiqa1LFhZ80KdyiMDcICKJ1A9CjJosAf1TEHu1+ge+j4fWk3i385Emt+cfTbkG0Hq4XEeAeBtROnMDXDhBx6hAB4ScOYREXmwmB/wLz53RyVZgGWAAAAABJRU5ErkJggg==;" vertex="1" parent="1">
          <mxGeometry x="40" y="60" width="474" height="294" as="geometry" />
        </mxCell>
        <mxCell id="eIilNgB78uuXr6DEdDGg-3" value="INDEX" style="swimlane;fontStyle=0;childLayout=stackLayout;horizontal=1;startSize=26;horizontalStack=0;resizeParent=1;resizeParentMax=0;resizeLast=0;collapsible=1;marginBottom=0;align=center;fontSize=14;fillColor=#FCFCFC;fontColor=#080808;" vertex="1" parent="1">
          <mxGeometry x="-220" y="60" width="160" height="116" as="geometry" />
        </mxCell>
        <mxCell id="eIilNgB78uuXr6DEdDGg-4" value="Antonio" style="text;strokeColor=none;fillColor=#FCFCFC;spacingLeft=4;spacingRight=4;overflow=hidden;rotatable=0;points=[[0,0.5],[1,0.5]];portConstraint=eastwest;fontSize=12;whiteSpace=wrap;html=1;fontColor=#080808;" vertex="1" parent="eIilNgB78uuXr6DEdDGg-3">
          <mxGeometry y="26" width="160" height="30" as="geometry" />
        </mxCell>
        <mxCell id="eIilNgB78uuXr6DEdDGg-5" value="Claudia" style="text;strokeColor=none;fillColor=#FCFCFC;spacingLeft=4;spacingRight=4;overflow=hidden;rotatable=0;points=[[0,0.5],[1,0.5]];portConstraint=eastwest;fontSize=12;whiteSpace=wrap;html=1;fontColor=#080808;" vertex="1" parent="eIilNgB78uuXr6DEdDGg-3">
          <mxGeometry y="56" width="160" height="30" as="geometry" />
        </mxCell>
        <mxCell id="eIilNgB78uuXr6DEdDGg-6" value="Lucas" style="text;strokeColor=none;fillColor=#FCFCFC;spacingLeft=4;spacingRight=4;overflow=hidden;rotatable=0;points=[[0,0.5],[1,0.5]];portConstraint=eastwest;fontSize=12;whiteSpace=wrap;html=1;fontColor=#080808;" vertex="1" parent="eIilNgB78uuXr6DEdDGg-3">
          <mxGeometry y="86" width="160" height="30" as="geometry" />
        </mxCell>
        <mxCell id="eIilNgB78uuXr6DEdDGg-31" value="INDEX" style="swimlane;fontStyle=0;childLayout=stackLayout;horizontal=1;startSize=26;horizontalStack=0;resizeParent=1;resizeParentMax=0;resizeLast=0;collapsible=1;marginBottom=0;align=center;fontSize=14;fillColor=#FCFCFC;fontColor=#080808;" vertex="1" parent="1">
          <mxGeometry x="-220" y="200" width="160" height="116" as="geometry" />
        </mxCell>
        <mxCell id="eIilNgB78uuXr6DEdDGg-32" value="Marina" style="text;strokeColor=none;fillColor=#FCFCFC;spacingLeft=4;spacingRight=4;overflow=hidden;rotatable=0;points=[[0,0.5],[1,0.5]];portConstraint=eastwest;fontSize=12;whiteSpace=wrap;html=1;fontColor=#080808;" vertex="1" parent="eIilNgB78uuXr6DEdDGg-31">
          <mxGeometry y="26" width="160" height="30" as="geometry" />
        </mxCell>
        <mxCell id="eIilNgB78uuXr6DEdDGg-33" value="Mirtes" style="text;strokeColor=none;fillColor=#FCFCFC;spacingLeft=4;spacingRight=4;overflow=hidden;rotatable=0;points=[[0,0.5],[1,0.5]];portConstraint=eastwest;fontSize=12;whiteSpace=wrap;html=1;fontColor=#080808;" vertex="1" parent="eIilNgB78uuXr6DEdDGg-31">
          <mxGeometry y="56" width="160" height="30" as="geometry" />
        </mxCell>
        <mxCell id="eIilNgB78uuXr6DEdDGg-34" value="Tarso" style="text;strokeColor=none;fillColor=#FCFCFC;spacingLeft=4;spacingRight=4;overflow=hidden;rotatable=0;points=[[0,0.5],[1,0.5]];portConstraint=eastwest;fontSize=12;whiteSpace=wrap;html=1;fontColor=#080808;" vertex="1" parent="eIilNgB78uuXr6DEdDGg-31">
          <mxGeometry y="86" width="160" height="30" as="geometry" />
        </mxCell>
        <mxCell id="eIilNgB78uuXr6DEdDGg-35" value="INDEX" style="swimlane;fontStyle=0;childLayout=stackLayout;horizontal=1;startSize=26;horizontalStack=0;resizeParent=1;resizeParentMax=0;resizeLast=0;collapsible=1;marginBottom=0;align=center;fontSize=14;fillColor=#FCFCFC;fontColor=#080808;" vertex="1" parent="1">
          <mxGeometry x="-220" y="330" width="160" height="56" as="geometry" />
        </mxCell>
        <mxCell id="eIilNgB78uuXr6DEdDGg-37" value="Valter" style="text;strokeColor=none;fillColor=#FCFCFC;spacingLeft=4;spacingRight=4;overflow=hidden;rotatable=0;points=[[0,0.5],[1,0.5]];portConstraint=eastwest;fontSize=12;whiteSpace=wrap;html=1;fontColor=#080808;" vertex="1" parent="eIilNgB78uuXr6DEdDGg-35">
          <mxGeometry y="26" width="160" height="30" as="geometry" />
        </mxCell>
        <mxCell id="eIilNgB78uuXr6DEdDGg-39" value="INDEX" style="swimlane;fontStyle=0;childLayout=stackLayout;horizontal=1;startSize=26;horizontalStack=0;resizeParent=1;resizeParentMax=0;resizeLast=0;collapsible=1;marginBottom=0;align=center;fontSize=14;fillColor=#FCFCFC;fontColor=#080808;" vertex="1" parent="1">
          <mxGeometry x="-480" y="160" width="160" height="116" as="geometry" />
        </mxCell>
        <mxCell id="eIilNgB78uuXr6DEdDGg-40" value="Antonio" style="text;strokeColor=none;fillColor=#FCFCFC;spacingLeft=4;spacingRight=4;overflow=hidden;rotatable=0;points=[[0,0.5],[1,0.5]];portConstraint=eastwest;fontSize=12;whiteSpace=wrap;html=1;fontColor=#080808;" vertex="1" parent="eIilNgB78uuXr6DEdDGg-39">
          <mxGeometry y="26" width="160" height="30" as="geometry" />
        </mxCell>
        <mxCell id="eIilNgB78uuXr6DEdDGg-41" value="Lucas" style="text;strokeColor=none;fillColor=#FCFCFC;spacingLeft=4;spacingRight=4;overflow=hidden;rotatable=0;points=[[0,0.5],[1,0.5]];portConstraint=eastwest;fontSize=12;whiteSpace=wrap;html=1;fontColor=#080808;" vertex="1" parent="eIilNgB78uuXr6DEdDGg-39">
          <mxGeometry y="56" width="160" height="30" as="geometry" />
        </mxCell>
        <mxCell id="eIilNgB78uuXr6DEdDGg-42" value="Valter" style="text;strokeColor=none;fillColor=#FCFCFC;spacingLeft=4;spacingRight=4;overflow=hidden;rotatable=0;points=[[0,0.5],[1,0.5]];portConstraint=eastwest;fontSize=12;whiteSpace=wrap;html=1;fontColor=#080808;" vertex="1" parent="eIilNgB78uuXr6DEdDGg-39">
          <mxGeometry y="86" width="160" height="30" as="geometry" />
        </mxCell>
        <mxCell id="eIilNgB78uuXr6DEdDGg-43" style="edgeStyle=orthogonalEdgeStyle;rounded=0;orthogonalLoop=1;jettySize=auto;html=1;exitX=1;exitY=0.5;exitDx=0;exitDy=0;entryX=0;entryY=0.5;entryDx=0;entryDy=0;" edge="1" parent="1" source="eIilNgB78uuXr6DEdDGg-40" target="eIilNgB78uuXr6DEdDGg-4">
          <mxGeometry relative="1" as="geometry" />
        </mxCell>
        <mxCell id="eIilNgB78uuXr6DEdDGg-44" style="edgeStyle=orthogonalEdgeStyle;rounded=0;orthogonalLoop=1;jettySize=auto;html=1;exitX=1;exitY=0.5;exitDx=0;exitDy=0;entryX=0;entryY=0.5;entryDx=0;entryDy=0;" edge="1" parent="1" source="eIilNgB78uuXr6DEdDGg-41" target="eIilNgB78uuXr6DEdDGg-32">
          <mxGeometry relative="1" as="geometry" />
        </mxCell>
        <mxCell id="eIilNgB78uuXr6DEdDGg-46" style="edgeStyle=orthogonalEdgeStyle;rounded=0;orthogonalLoop=1;jettySize=auto;html=1;exitX=1;exitY=0.5;exitDx=0;exitDy=0;entryX=0;entryY=0.116;entryDx=0;entryDy=0;entryPerimeter=0;" edge="1" parent="1" source="eIilNgB78uuXr6DEdDGg-4" target="eIilNgB78uuXr6DEdDGg-1">
          <mxGeometry relative="1" as="geometry" />
        </mxCell>
        <mxCell id="eIilNgB78uuXr6DEdDGg-47" style="edgeStyle=orthogonalEdgeStyle;rounded=0;orthogonalLoop=1;jettySize=auto;html=1;exitX=1;exitY=0.5;exitDx=0;exitDy=0;entryX=0;entryY=0.25;entryDx=0;entryDy=0;" edge="1" parent="1" source="eIilNgB78uuXr6DEdDGg-5" target="eIilNgB78uuXr6DEdDGg-1">
          <mxGeometry relative="1" as="geometry" />
        </mxCell>
        <mxCell id="eIilNgB78uuXr6DEdDGg-48" style="edgeStyle=orthogonalEdgeStyle;rounded=0;orthogonalLoop=1;jettySize=auto;html=1;exitX=1;exitY=0.5;exitDx=0;exitDy=0;entryX=0;entryY=0.395;entryDx=0;entryDy=0;entryPerimeter=0;" edge="1" parent="1" source="eIilNgB78uuXr6DEdDGg-6" target="eIilNgB78uuXr6DEdDGg-1">
          <mxGeometry relative="1" as="geometry" />
        </mxCell>
        <mxCell id="eIilNgB78uuXr6DEdDGg-49" style="edgeStyle=orthogonalEdgeStyle;rounded=0;orthogonalLoop=1;jettySize=auto;html=1;exitX=1;exitY=0.5;exitDx=0;exitDy=0;entryX=0;entryY=0.5;entryDx=0;entryDy=0;" edge="1" parent="1" source="eIilNgB78uuXr6DEdDGg-42" target="eIilNgB78uuXr6DEdDGg-37">
          <mxGeometry relative="1" as="geometry" />
        </mxCell>
        <mxCell id="eIilNgB78uuXr6DEdDGg-50" style="edgeStyle=orthogonalEdgeStyle;rounded=0;orthogonalLoop=1;jettySize=auto;html=1;exitX=1;exitY=0.5;exitDx=0;exitDy=0;entryX=0.004;entryY=0.456;entryDx=0;entryDy=0;entryPerimeter=0;" edge="1" parent="1" source="eIilNgB78uuXr6DEdDGg-32" target="eIilNgB78uuXr6DEdDGg-1">
          <mxGeometry relative="1" as="geometry" />
        </mxCell>
        <mxCell id="eIilNgB78uuXr6DEdDGg-51" style="edgeStyle=orthogonalEdgeStyle;rounded=0;orthogonalLoop=1;jettySize=auto;html=1;exitX=1;exitY=0.5;exitDx=0;exitDy=0;entryX=-0.006;entryY=0.677;entryDx=0;entryDy=0;entryPerimeter=0;" edge="1" parent="1" source="eIilNgB78uuXr6DEdDGg-33" target="eIilNgB78uuXr6DEdDGg-1">
          <mxGeometry relative="1" as="geometry" />
        </mxCell>
        <mxCell id="eIilNgB78uuXr6DEdDGg-52" style="edgeStyle=orthogonalEdgeStyle;rounded=0;orthogonalLoop=1;jettySize=auto;html=1;exitX=1;exitY=0.5;exitDx=0;exitDy=0;entryX=0;entryY=0.75;entryDx=0;entryDy=0;" edge="1" parent="1" source="eIilNgB78uuXr6DEdDGg-34" target="eIilNgB78uuXr6DEdDGg-1">
          <mxGeometry relative="1" as="geometry" />
        </mxCell>
        <mxCell id="eIilNgB78uuXr6DEdDGg-53" style="edgeStyle=orthogonalEdgeStyle;rounded=0;orthogonalLoop=1;jettySize=auto;html=1;exitX=1;exitY=0.75;exitDx=0;exitDy=0;entryX=0.004;entryY=0.888;entryDx=0;entryDy=0;entryPerimeter=0;" edge="1" parent="1" source="eIilNgB78uuXr6DEdDGg-35" target="eIilNgB78uuXr6DEdDGg-1">
          <mxGeometry relative="1" as="geometry" />
        </mxCell>
      </root>
    </mxGraphModel>
  </diagram>
</mxfile>
